<svg xmlns="http://www.w3.org/2000/svg" width="35" height="36" viewBox="0 0 35 36">
    <defs>
        <filter id="98nkjel2ja">
            <feColorMatrix in="SourceGraphic" values="0 0 0 0 0.000000 0 0 0 0 0.654902 0 0 0 0 0.858824 0 0 0 1.000000 0"/>
        </filter>
    </defs>
    <g fill="none" fill-rule="evenodd">
        <g>
            <g>
                <g>
                    <g>
                        <g filter="url(#98nkjel2ja)" transform="translate(-844 -2175) translate(0 2134) translate(377 41) translate(422) translate(45)">
                            <g fill="#000" fill-rule="nonzero">
                                <path d="M1.84 29.455c-1.014 0-1.84-.826-1.84-1.841V1.84C0 .826.826 0 1.84 0h23.32C26.173 0 27 .826 27 1.84v25.774c0 1.015-.826 1.84-1.84 1.84H1.84zm23.32-1.228c.338 0 .613-.275.613-.613V1.84c0-.339-.275-.614-.614-.614H4.91v27h20.25zm-23.32-27c-.338 0-.613.275-.613.614v25.773c0 .338.275.613.614.613h1.84v-27h-1.84z" transform="translate(4 3)"/>
                                <path d="M6.75 19.636c-.075 0-.147-.013-.217-.039-.317-.12-.478-.475-.357-.792.808-2.136 2.6-3.79 4.795-4.423.055-.016.113-.024.17-.024.271 0 .514.183.59.443.093.325-.095.665-.42.76-1.825.526-3.317 1.9-3.988 3.677-.088.239-.319.398-.573.398zM11.139 13.231c-.076 0-.15-.013-.221-.041-1.145-.444-2.05-1.308-2.547-2.433-.497-1.125-.528-2.376-.083-3.521.68-1.759 2.406-2.94 4.295-2.94.567 0 1.124.104 1.657.31.621.24 1.17.604 1.632 1.079.114.116.177.272.175.435-.003.165-.068.318-.186.432-.115.113-.267.175-.428.175-.167 0-.323-.067-.44-.186-.34-.348-.742-.615-1.196-.79-.389-.151-.796-.228-1.211-.228-.969 0-1.898.423-2.535 1.144.733.682 1.622 1.172 2.586 1.423.328.086.524.421.438.749-.07.27-.314.459-.594.459-.052 0-.105-.006-.155-.02-1.076-.28-2.076-.81-2.918-1.538-.3.823-.271 1.715.085 2.521.364.826 1.028 1.46 1.867 1.785.153.059.273.174.34.324.066.15.07.316.01.469-.09.235-.32.392-.571.392z" transform="translate(4 3)"/>
                                <path d="M13.326 16.131c-.113 0-.224-.03-.32-.09-.288-.175-.38-.553-.203-.842.43-.705.642-1.512.614-2.337v-1.116c0-2.415 1.964-4.38 4.38-4.38 2.415 0 4.38 1.965 4.38 4.38v1.095c-.028.842.184 1.653.613 2.358.086.14.112.304.073.463-.038.16-.138.295-.277.38-.095.059-.205.09-.32.09-.216 0-.41-.111-.524-.295-.311-.512-.535-1.07-.664-1.653-.641.973-1.693 1.628-2.889 1.747-.132.014-.265.02-.395.02-1.328 0-2.56-.692-3.278-1.77-.129.583-.352 1.143-.665 1.656-.114.185-.31.294-.525.294zm1.891-3.284c.356 1.105 1.393 1.879 2.575 1.879.09 0 .181-.005.273-.013 1.07-.107 1.979-.857 2.308-1.865-.97-.21-1.851-.664-2.579-1.326-.726.661-1.606 1.115-2.577 1.325zm2.578-4.254c-1.724 0-3.13 1.392-3.152 3.111 1.048-.148 1.994-.66 2.687-1.464.114-.131.284-.207.464-.207.18 0 .35.076.464.207.695.804 1.64 1.316 2.69 1.464-.022-1.719-1.428-3.11-3.153-3.11zM23.932 23.932c-.339 0-.614-.275-.614-.614 0-3.045-2.478-5.523-5.523-5.523-3.044 0-5.522 2.478-5.522 5.523 0 .339-.275.614-.614.614-.339 0-.614-.275-.614-.614 0-3.722 3.028-6.75 6.75-6.75 3.723 0 6.75 3.028 6.75 6.75 0 .339-.274.614-.613.614z" transform="translate(4 3)"/>
                            </g>
                        </g>
                    </g>
                </g>
            </g>
        </g>
    </g>
</svg>
