<svg xmlns="http://www.w3.org/2000/svg" width="35" height="36" viewBox="0 0 35 36">
    <defs>
        <filter id="4nqqlfvlka">
            <feColorMatrix in="SourceGraphic" values="0 0 0 0 0.000000 0 0 0 0 0.654902 0 0 0 0 0.858824 0 0 0 1.000000 0"/>
        </filter>
    </defs>
    <g fill="none" fill-rule="evenodd">
        <g>
            <g>
                <g>
                    <g>
                        <g filter="url(#4nqqlfvlka)" transform="translate(-629 -2175) translate(0 2134) translate(377 41) translate(190) translate(62)">
                            <g fill="#000" fill-rule="nonzero">
                                <path d="M5.807 25.833c-.356 0-.646-.289-.646-.645 0-.357.29-.646.646-.646h3.235v-2.584H1.938C.869 21.958 0 21.09 0 20.021V8.396c0-1.068.87-1.938 1.938-1.938h15.5c1.068 0 1.937.87 1.937 1.938V20.02c0 1.068-.87 1.937-1.938 1.937h-7.104v2.584h3.224c.357 0 .646.289.646.645 0 .357-.29.646-.646.646h-7.75zM1.937 7.75c-.356 0-.645.29-.645.646V20.02c0 .356.289.646.645.646h15.5c.357 0 .646-.29.646-.646V8.396c0-.357-.289-.646-.645-.646h-15.5z" transform="translate(2 5)"/>
                                <path d="M18.73 25.833c-1.069 0-1.938-.869-1.938-1.937 0-.357.289-.646.645-.646.357 0 .646.29.646.646 0 .356.29.646.646.646h10.334c.356 0 .645-.29.645-.646V10.333h-8.395c-.357 0-.646-.289-.646-.646 0-.356.289-.645.645-.645h8.396V6.458h-8.395c-.357 0-.646-.289-.646-.646 0-.356.289-.645.645-.645h8.396v-3.23c0-.356-.289-.645-.645-.645H18.729c-.356 0-.646.289-.646.645v2.584c0 .356-.289.646-.645.646-.357 0-.646-.29-.646-.646V1.938C16.792.869 17.66 0 18.729 0h10.334C30.13 0 31 .87 31 1.938v21.958c0 1.068-.87 1.937-1.938 1.937H18.73z" transform="translate(2 5)"/>
                                <path d="M23.896 20.667c-1.425 0-2.584-1.159-2.584-2.584 0-1.424 1.16-2.583 2.584-2.583 1.425 0 2.583 1.159 2.583 2.583 0 1.425-1.158 2.584-2.583 2.584zm0-3.875c-.713 0-1.292.578-1.292 1.291s.579 1.292 1.292 1.292c.713 0 1.291-.579 1.291-1.292 0-.713-.578-1.291-1.291-1.291z" transform="translate(2 5)"/>
                            </g>
                        </g>
                    </g>
                </g>
            </g>
        </g>
    </g>
</svg>
