<svg xmlns="http://www.w3.org/2000/svg" width="35" height="36" viewBox="0 0 35 36">
    <defs>
        <filter id="w07a5lruoa">
            <feColorMatrix in="SourceGraphic" values="0 0 0 0 0.000000 0 0 0 0 0.654902 0 0 0 0 0.858824 0 0 0 1.000000 0"/>
        </filter>
    </defs>
    <g fill="none" fill-rule="evenodd">
        <g>
            <g>
                <g>
                    <g filter="url(#w07a5lruoa)" transform="translate(-416 -2175) translate(0 2134) translate(377 41) translate(39)">
                        <g>
                            <path fill="#000" fill-rule="nonzero" d="M.609 28.918c-.333 0-.604-.27-.604-.604 0-.334.27-.605.604-.605h27.792c.333 0 .604.271.604.605 0 .333-.27.604-.604.604H.609zM.609 26.501c-.333 0-.604-.27-.604-.604 0-.333.27-.604.604-.604h27.792c.333 0 .604.27.604.604 0 .334-.27.604-.604.604H.609zM1.817 24.084c-.333 0-.604-.27-.604-.604 0-.333.27-.604.604-.604h.605v-8.458h-.605c-.333 0-.604-.27-.604-.604 0-.334.27-.604.604-.604H7.86c.334 0 .604.27.604.604 0 .333-.27.604-.604.604h-.604v8.458h.604c.334 0 .604.27.604.604 0 .334-.27.604-.604.604H1.817zm4.23-1.208v-8.458H3.63v8.458h2.417zM11.484 24.084c-.334 0-.604-.27-.604-.604 0-.333.27-.604.604-.604h.604v-8.458h-.604c-.334 0-.604-.27-.604-.604 0-.334.27-.604.604-.604h6.042c.333 0 .604.27.604.604 0 .333-.27.604-.604.604h-.604v8.458h.604c.333 0 .604.27.604.604 0 .334-.27.604-.604.604h-6.042zm4.23-1.208v-8.458h-2.418v8.458h2.417zM21.15 24.084c-.333 0-.603-.27-.603-.604 0-.333.27-.604.604-.604h.604v-8.458h-.604c-.334 0-.604-.27-.604-.604 0-.334.27-.604.604-.604h6.041c.334 0 .605.27.605.604 0 .333-.271.604-.605.604h-.604v8.458h.604c.334 0 .605.27.605.604 0 .334-.271.604-.605.604h-6.041zm4.23-1.208v-8.458h-2.417v8.458h2.417zM2.365 12.001c-.371 0-.729-.175-.956-.467-.197-.254-.284-.572-.244-.891.04-.32.203-.605.458-.804L13.798.34c.211-.166.476-.257.743-.257s.533.09.744.256l12.113 9.505c.295.23.464.579.464.953-.001.665-.544 1.206-1.209 1.206H2.365zm0-1.208l24.287.001-12.11-9.505-12.176 9.504z" transform="translate(3 3)"/>
                        </g>
                    </g>
                </g>
            </g>
        </g>
    </g>
</svg>
