<svg xmlns="http://www.w3.org/2000/svg" width="35" height="35" viewBox="0 0 35 35">
    <defs>
        <filter id="morsegc7ja">
            <feColorMatrix in="SourceGraphic" values="0 0 0 0 0.000000 0 0 0 0 0.654902 0 0 0 0 0.858824 0 0 0 1.000000 0"/>
        </filter>
    </defs>
    <g fill="none" fill-rule="evenodd">
        <g filter="url(#morsegc7ja)">
            <g>
                <path fill="#00A7DB" fill-rule="nonzero" d="M1.148 14.922v7.46c0 .95.772 1.722 1.722 1.722v-6.313c0-1.582 1.287-2.87 2.87-2.87h2.869c.316 0 .574.258.574.575v3.443h4.59c.318 0 .575.257.575.574v1.722h3.443v-1.722c0-.317.257-.574.574-.574h4.592v-3.443c0-.317.257-.574.573-.574h2.87c1.582 0 2.87 1.287 2.87 2.87v6.312c.949 0 1.721-.772 1.721-1.721v-7.461h1.148v7.46c0 1.174-.71 2.183-1.722 2.627v7.13H29.27v-6.887h-5.74v6.313c0 .317-.257.574-.573.574h-2.87v-9.756h-8.035v9.756h-2.87c-.316 0-.573-.257-.573-.574v-6.313h-5.74v6.887H1.723v-7.13C.71 24.565 0 23.556 0 22.383v-7.461h1.148zm6.887 1.148H5.739c-.95 0-1.722.772-1.722 1.721v6.313h5.166c.316 0 .574.257.574.574v6.313h1.147v-8.034c0-.317-.257-.574-.574-.574H6.313c-.317 0-.574-.258-.574-.574V17.79h1.148v3.444H13.2v-1.148H8.609c-.317 0-.574-.257-.574-.574V16.07zm18.365 0h-2.296v3.443c0 .317-.257.574-.574.574h-4.59v1.148h6.312V17.79H26.4v4.018c0 .316-.257.574-.574.574H21.81c-.317 0-.574.257-.574.574v8.034h1.148v-6.313c0-.317.257-.574.574-.574h5.165v-6.313c0-.949-.773-1.721-1.722-1.721zm-7.887-5.018c.748 0 1.387.48 1.624 1.148h.672c.211 0 .406.117.506.304.1.186.089.412-.029.588l-1.051 1.578v.4c0 .949-.773 1.721-1.722 1.721h-4.591c-.95 0-1.722-.772-1.722-1.721v-2.296c0-.95.772-1.722 1.722-1.722zm0 1.148h-4.591c-.316 0-.574.258-.574.574v2.296c0 .316.258.573.574.573h4.591c.316 0 .574-.257.574-.573v-.574c0-.113.034-.225.096-.319l.553-.83h-.075c-.317 0-.574-.256-.574-.573 0-.316-.258-.574-.574-.574zM6.887 6.887c1.899 0 3.443 1.544 3.443 3.443 0 1.9-1.544 3.444-3.443 3.444-1.9 0-3.444-1.544-3.444-3.444 0-1.899 1.545-3.443 3.444-3.443zm18.365 0c1.9 0 3.444 1.544 3.444 3.443 0 1.9-1.545 3.444-3.444 3.444S21.81 12.23 21.81 10.33c0-1.899 1.544-3.443 3.443-3.443zM6.887 8.035c-1.266 0-2.296 1.03-2.296 2.295 0 1.266 1.03 2.296 2.296 2.296 1.266 0 2.296-1.03 2.296-2.296 0-1.266-1.03-2.295-2.296-2.295zm18.365 0c-1.266 0-2.295 1.03-2.295 2.295 0 1.266 1.03 2.296 2.295 2.296 1.266 0 2.296-1.03 2.296-2.296 0-1.266-1.03-2.295-2.296-2.295zM17.792 0c.949 0 1.721.772 1.721 1.722v2.295c0 .95-.772 1.722-1.722 1.722h-4.304l-1.55 2.066c-.11.147-.281.23-.459.23-.06 0-.121-.01-.181-.03-.235-.078-.393-.297-.393-.544V5.739c-.949 0-1.721-.772-1.721-1.722V1.722C9.183.772 9.955 0 10.904 0zm0 1.148h-6.888c-.316 0-.574.258-.574.574v2.295c0 .317.258.574.574.574h.574c.317 0 .574.257.574.574v.574l.689-.918c.108-.145.278-.23.459-.23h4.591c.317 0 .574-.257.574-.574V1.722c0-.316-.257-.574-.574-.574z" transform="translate(1 1)"/>
            </g>
        </g>
    </g>
</svg>
