<svg xmlns="http://www.w3.org/2000/svg" width="25" height="12" viewBox="0 0 25 12">
    <defs>
        <filter id="y5fpe7olka">
            <feColorMatrix in="SourceGraphic" values="0 0 0 0 0.000000 0 0 0 0 0.145098 0 0 0 0 0.588235 0 0 0 1.000000 0"/>
        </filter>
        <filter id="bk2pq1aqwb">
            <feColorMatrix in="SourceGraphic" values="0 0 0 0 0.000000 0 0 0 0 0.654902 0 0 0 0 0.858824 0 0 0 1.000000 0"/>
        </filter>
        <linearGradient id="9qhkhx89xc" x1="-54.593%" x2="169.995%" y1="75.503%" y2="9.068%">
            <stop offset="0%" stop-color="#58E88C"/>
            <stop offset="100%" stop-color="#80D7EF"/>
        </linearGradient>
    </defs>
    <g fill="none" fill-rule="evenodd">
        <g>
            <g>
                <g filter="url(#y5fpe7olka)" transform="translate(-1210 -369) translate(1180 332)">
                    <g filter="url(#bk2pq1aqwb)" transform="translate(30 37)">
                        <path fill="url(#9qhkhx89xc)" d="M17.929.372c.264-.268.69-.268.955 0l5.062 5.143c.264.268.264.702 0 .97l-5.062 5.143c-.264.268-.691.268-.955 0s-.264-.702 0-.97l3.91-3.973H.717c-.34 0-.62-.253-.668-.584L.042 6c0-.379.302-.686.675-.686h21.122l-3.91-3.972c-.237-.241-.261-.617-.071-.885z"/>
                    </g>
                </g>
            </g>
        </g>
    </g>
</svg>
