<svg xmlns="http://www.w3.org/2000/svg" xmlns:xlink="http://www.w3.org/1999/xlink" width="15" height="15" viewBox="0 0 15 15">
    <defs>
        <filter id="dxi9nxfe6a">
            <feColorMatrix in="SourceGraphic" values="0 0 0 0 0.000000 0 0 0 0 0.654902 0 0 0 0 0.858824 0 0 0 1.000000 0"/>
        </filter>
        <path id="zxpuyfrmab" d="M0 0L14.836 0 14.836 14.325 0 14.325z"/>
    </defs>
    <g fill="none" fill-rule="evenodd">
        <g>
            <g filter="url(#dxi9nxfe6a)" transform="translate(-442 -792) translate(442 790)">
                <g transform="translate(0 2)">
                    <mask id="hacj30osfc" fill="#fff">
                        <use xlink:href="#zxpuyfrmab"/>
                    </mask>
                    <path fill="#FFF" d="M14.66 5.87c-.338-.835-1.127-1.4-2.026-1.453h-1.908c.097-.8.066-1.61-.09-2.4C10.14.037 9.046-.043 8.598.011c-.713.087-1.341.693-1.341 1.293 0 .524 0 1.746-.965 2.714-.616.542-1.356.925-2.154 1.112-.028-.291-.274-.513-.566-.512H.566c-.312 0-.566.253-.566.566v8.51c0 .313.254.567.566.567h3.011c.247-.001.464-.161.538-.397.51.32 1.098.461 2.111.461h4.95c1.04.001 1.933-.742 2.12-1.765l.713-3.912c.79-.863 1.03-1.865.651-2.779z" mask="url(#hacj30osfc)"/>
                </g>
            </g>
        </g>
    </g>
</svg>
