<svg xmlns="http://www.w3.org/2000/svg" width="16" height="15" viewBox="0 0 16 15">
    <defs>
        <filter id="4v1py0fk9a">
            <feColorMatrix in="SourceGraphic" values="0 0 0 0 0.000000 0 0 0 0 0.654902 0 0 0 0 0.858824 0 0 0 1.000000 0"/>
        </filter>
    </defs>
    <g fill="none" fill-rule="evenodd">
        <g>
            <g filter="url(#4v1py0fk9a)" transform="translate(-688 -3520) translate(344 3515)">
                <g>
                    <path fill="#FFF" fill-rule="nonzero" d="M8.323 12.353c-.206.204-.206.536 0 .74.207.204.542.204.748 0l4.63-4.576c1.733-1.715 1.732-4.516-.002-6.23-1.735-1.716-4.565-1.716-6.3 0L.919 8.693c-1.226 1.212-1.225 3.188 0 4.4 1.225 1.21 3.227 1.21 4.45-.001l6.479-6.405c.716-.708.715-1.862 0-2.57-.716-.707-1.884-.706-2.599 0L4.621 8.695c-.206.203-.206.535 0 .739.206.204.542.204.748 0l4.628-4.576c.304-.301.798-.301 1.103 0 .304.301.305.79 0 1.09l-6.479 6.406c-.813.804-2.14.805-2.953 0-.814-.804-.814-2.117-.001-2.921l6.48-6.406c1.322-1.307 3.481-1.307 4.804 0 1.325 1.31 1.326 3.44 0 4.75l-4.628 4.577z" transform="translate(344.578 5)"/>
                </g>
            </g>
        </g>
    </g>
</svg>
