<svg xmlns="http://www.w3.org/2000/svg" xmlns:xlink="http://www.w3.org/1999/xlink" width="15" height="15" viewBox="0 0 15 15">
    <defs>
        <filter id="icx2kxc6ea">
            <feColorMatrix in="SourceGraphic" values="0 0 0 0 0.000000 0 0 0 0 0.654902 0 0 0 0 0.858824 0 0 0 1.000000 0"/>
        </filter>
        <path id="tjyq21y1ib" d="M0 0L14.836 0 14.836 14.325 0 14.325z"/>
    </defs>
    <g fill="none" fill-rule="evenodd">
        <g>
            <g>
                <g>
                    <g filter="url(#icx2kxc6ea)" transform="translate(-541 -3490) translate(0 2586) translate(344 902) translate(197)">
                        <g transform="translate(0 2)">
                            <mask id="lzt0d53a1c" fill="#fff">
                                <use xlink:href="#tjyq21y1ib"/>
                            </mask>
                            <path fill="#FFF" d="M13.078 7.98c-.079.077-.134.176-.158.283l-.739 4.093c-.083.49-.507.849-1.005.849h-4.95c-1.22 0-1.53-.215-2.083-.775V6.296c.71-.164 2.047-.566 2.947-1.477 1.268-1.268 1.299-2.83 1.299-3.47.094-.135.248-.217.413-.218.283.023.566.467.736 1.16.252 1.003 0 2.585 0 2.602-.05.308.16.6.468.649.032.005.065.008.098.007h2.547c.438.057.81.351.965.764.218.521.028 1.099-.538 1.667zM1.132 13.13h1.88V5.747h-1.88v7.382zm13.528-7.26c-.338-.834-1.127-1.4-2.026-1.452h-1.908c.097-.8.066-1.61-.09-2.4C10.14.037 9.046-.043 8.598.011c-.713.087-1.341.693-1.341 1.293 0 .524 0 1.746-.965 2.714-.616.542-1.356.925-2.154 1.112-.028-.291-.274-.513-.566-.512H.566c-.312 0-.566.253-.566.566v8.51c0 .313.254.567.566.567h3.011c.247-.001.464-.161.538-.397.51.32 1.098.461 2.111.461h4.95c1.04.001 1.933-.742 2.12-1.765l.713-3.912c.79-.863 1.03-1.865.651-2.779z" mask="url(#lzt0d53a1c)"/>
                        </g>
                    </g>
                </g>
            </g>
        </g>
    </g>
</svg>
