<svg xmlns="http://www.w3.org/2000/svg" xmlns:xlink="http://www.w3.org/1999/xlink" width="158" height="32" viewBox="0 0 158 32">
    <defs>
        <path id="7tahgw0nla" d="M0 30L158 30 158 0 0 0z"/>
    </defs>
    <g fill="none" fill-rule="evenodd">
        <g>
            <g>
                <g>
                    <g transform="translate(-148 -2211) translate(0 2134) translate(148 77) translate(0 1)">
                        <path fill="#002596" d="M60.007 17.69h2.232c3.349 0 6.583-2.617 6.583-7.19s-3.234-7.19-6.583-7.19h-2.232v14.38zM56 0h5.466C67.591 0 73 2.166 73 10.5S67.59 21 61.466 21H56V0zM82 0L93.941 0 93.941 3.309 86.057 3.309 86.057 8.484 93.275 8.484 93.275 11.794 86.057 11.794 86.057 17.691 94 17.691 94 21 82 21zM106.725 10.079L100.617 0 105.374 0 109.662 7.492 114.037 0 118.442 0 112.275 10.079 119 21 114.155 21 109.427 12.817 104.64 21 100 21z"/>
                        <mask id="fkzsfiag9b" fill="#fff">
                            <use xlink:href="#7tahgw0nla"/>
                        </mask>
                        <path fill="#002596" d="M126 21L130 21 130 0 126 0zM147.41 4.212h-.06l-3.012 8.665h6.086l-3.014-8.665zM145.114 0h4.713L158 21h-4.624l-1.79-4.814h-8.441L141.325 21H137l8.114-21z" mask="url(#fkzsfiag9b)"/>
                        <path fill="#00A7DB" d="M0 .483h3.486V3.46h.08C4.992 1.086 7.012 0 9.983 0c2.338 0 4.675 1.207 5.745 3.982C17.114 1.046 20.165 0 21.988 0 27.137 0 29 3.379 29 7.845V21h-3.724V8.77c0-2.534-.594-5.712-3.606-5.712-3.802 0-5.308 3.781-5.308 7.603V21h-3.724V8.77c0-2.534-.594-5.712-3.605-5.712-3.804 0-5.309 3.781-5.309 7.603V21H0V.483zM34.394 26.672c.478.158 1.116.317 1.753.317 3.346 0 4.461-4.596 4.461-4.992 0-.436-.478-1.465-.717-2.139L33 1h4.103l5.457 16.719h.08L48.215 1H52l-7.488 20.64C43.117 25.524 41.644 30 36.705 30c-1.195 0-1.873-.158-2.55-.277l.24-3.051z" mask="url(#fkzsfiag9b)"/>
                    </g>
                </g>
            </g>
        </g>
    </g>
</svg>
