<?xml version="1.0" standalone="no"?>
<!DOCTYPE svg PUBLIC "-//W3C//DTD SVG 1.1//EN" "http://www.w3.org/Graphics/SVG/1.1/DTD/svg11.dtd" >
<svg xmlns="http://www.w3.org/2000/svg" xmlns:xlink="http://www.w3.org/1999/xlink" version="1.1">
<metadata>
Created by FontForge 20170731 at Tue Dec 22 07:10:09 2020
 By Aleksey,,,
(c) 1988, 1990, 1994, 2002 Adobe Systems Incorporated. All rights reserved.
</metadata>
<defs>
<font id="FrutigerLTStd-Italic" horiz-adv-x="1138" >
  <font-face 
    font-family="Frutiger LT Std 55 Roman"
    font-weight="400"
    font-style="italic"
    font-stretch="normal"
    units-per-em="2048"
    panose-1="2 11 6 2 2 2 4 9 2 4"
    ascent="1536"
    descent="-512"
    x-height="1044"
    cap-height="1430"
    bbox="-346 -512 2234 1905"
    underline-thickness="102"
    underline-position="-307"
    slope="-12"
    unicode-range="U+0020-FB02"
  />
<missing-glyph horiz-adv-x="1220" 
d="M197 0v1434h1024v-1434h-1024zM709 809l348 522h-697zM770 717l348 -522v1044zM360 102h697l-348 523zM299 1239v-1044l348 522z" />
    <glyph glyph-name="f_i" unicode="fi" horiz-adv-x="1366" 
d="M877 0l221 1044h192l-221 -1044h-192zM1403 1495l-45 -217h-217l45 217h217zM180 0l193 889h-250l29 155h254l24 103q10 44 19.5 78.5t27.5 79.5t38.5 78.5t52.5 68.5t70.5 57.5t91.5 37t116 14.5q67 0 147 -23l-39 -154q-14 7 -45 14t-47 7q-49 0 -87.5 -16t-63 -40
t-43 -62t-28 -70t-19.5 -76l-21 -97h277l-31 -155h-281l-192 -889h-193z" />
    <glyph glyph-name="f_l" unicode="fl" horiz-adv-x="1366" 
d="M180 0l193 889h-250l29 155h254l24 103q10 44 19.5 78.5t27.5 79.5t38.5 78.5t52.5 68.5t70.5 57.5t91.5 37t116 14.5q67 0 147 -23l-39 -154q-14 7 -45 14t-47 7q-49 0 -87.5 -16t-63 -40t-43 -62t-28 -70t-19.5 -76l-21 -97h277l-31 -155h-281l-192 -889h-193zM881 0
l325 1536h193l-326 -1536h-192z" />
    <glyph glyph-name=".notdef" horiz-adv-x="1220" 
d="M197 0v1434h1024v-1434h-1024zM709 809l348 522h-697zM770 717l348 -522v1044zM360 102h697l-348 523zM299 1239v-1044l348 522z" />
    <glyph glyph-name=".null" horiz-adv-x="0" 
 />
    <glyph glyph-name="nonmarkingreturn" horiz-adv-x="682" 
 />
    <glyph glyph-name="space" unicode=" " horiz-adv-x="569" 
 />
    <glyph glyph-name="exclam" unicode="!" horiz-adv-x="796" 
d="M287 401l198 1029h242l-254 -1029h-186zM182 0l47 229h230l-47 -229h-230z" />
    <glyph glyph-name="quotedbl" unicode="&#x22;" 
d="M743 928v502h181v-502h-181zM436 928v502h180v-502h-180z" />
    <glyph glyph-name="numbersign" unicode="#" 
d="M248 0l59 426h-217l23 156h217l37 266h-220l23 156h219l60 426h155l-59 -426h241l60 426h155l-59 -426h217l-22 -156h-217l-37 -266h217l-23 -156h-217l-59 -426h-156l60 426h-242l-60 -426h-155zM723 580l37 266h-242l-37 -266h242z" />
    <glyph glyph-name="dollar" unicode="$" 
d="M342 -211l39 186q-176 8 -340 84l63 187q166 -90 318 -90l113 514q-67 35 -114.5 66.5t-95.5 77.5t-73 105t-25 130q0 104 40.5 184t109.5 127t152.5 70.5t177.5 23.5l43 197h120l-45 -197q155 -11 310 -84l-58 -190q-148 89 -291 92l-98 -443q19 -11 54 -32
q48 -28 71.5 -42t60.5 -40t55 -45t41.5 -49.5t33.5 -61.5t18 -73t8 -91q0 -82 -30.5 -151.5t-82.5 -118t-120.5 -83t-144 -51t-154.5 -16.5l-41 -186h-115zM582 883l86 391q-97 -3 -160.5 -54.5t-63.5 -146.5q0 -117 138 -190zM641 614l-104 -458q66 1 127.5 26t105 78
t43.5 123q0 38 -9.5 69t-20.5 50.5t-39 42.5t-44.5 33.5t-58.5 35.5z" />
    <glyph glyph-name="percent" unicode="%" horiz-adv-x="2048" 
d="M229 1018q0 113 42 211t127 161.5t196 63.5q148 0 221.5 -83.5t73.5 -229.5q0 -120 -38.5 -213t-122.5 -151t-204 -58q-136 0 -215.5 81t-79.5 218zM397 1018q0 -81 28.5 -124.5t104.5 -43.5q54 0 93.5 29.5t59.5 78t29 97t9 98.5q0 39 -4 65.5t-16.5 52.5t-39 39
t-67.5 13q-44 0 -79.5 -19.5t-57 -50.5t-35.5 -72.5t-19.5 -81.5t-5.5 -81zM1124 274q0 113 42 211t127 162t196 64q148 0 221.5 -84t73.5 -230q0 -120 -38.5 -213t-122.5 -151t-204 -58q-136 0 -215.5 81t-79.5 218zM1292 274q0 -81 28.5 -124.5t104.5 -43.5q54 0 93.5 30
t59.5 78.5t29 97t9 98.5q0 39 -4 65.5t-16.5 52.5t-39 39t-67.5 13q-55 0 -95.5 -29t-61.5 -76.5t-30.5 -97.5t-9.5 -103zM418 -45l1044 1520h144l-1045 -1520h-143z" />
    <glyph glyph-name="ampersand" unicode="&#x26;" horiz-adv-x="1478" 
d="M819 727l228 -338q69 76 107.5 171t64.5 214h182q-59 -353 -254 -534l156 -240h-228l-69 109q-73 -61 -174.5 -97.5t-202.5 -36.5q-228 0 -358 105t-130 297q0 87 34 161t93 126t130.5 87.5t152.5 53.5q-111 145 -111 309q0 101 61 180.5t151 119.5t186 40
q61 0 116.5 -11t105 -35.5t85.5 -60.5t57 -89t21 -119q0 -69 -24.5 -128t-60.5 -99t-94 -77t-107 -59.5t-118 -48.5zM911 250l-272 418q-56 -15 -103.5 -35.5t-92.5 -53.5t-71 -82t-26 -110q0 -116 79 -186t193 -70q66 0 145 29t148 90zM729 860q41 11 79.5 25.5t82.5 38
t76 51t53.5 66.5t21.5 83q0 87 -55 130.5t-141 43.5q-90 0 -151.5 -55.5t-61.5 -150.5q0 -61 24.5 -113t71.5 -119z" />
    <glyph glyph-name="quotesingle" unicode="'" horiz-adv-x="569" 
d="M276 928v502h181v-502h-181z" />
    <glyph glyph-name="parenleft" unicode="(" horiz-adv-x="681" 
d="M688 1548h205q-101 -103 -177.5 -194t-145.5 -198.5t-113 -214.5t-69.5 -233.5t-25.5 -263.5q0 -117 19.5 -253t42 -232t61.5 -246h-170q-73 232 -109 430t-36 412q0 487 518 993z" />
    <glyph glyph-name="parenright" unicode=")" horiz-adv-x="681" 
d="M76 -287h-205q128 130 218 245t164.5 250.5t111 287t36.5 321.5q0 169 -31.5 337t-90.5 394h170q73 -232 109 -429.5t36 -411.5q0 -488 -518 -994z" />
    <glyph glyph-name="asterisk" unicode="*" 
d="M350 1298l268 -192l44 324l176 -41l-99 -304l320 56l12 -178h-326l162 -285l-170 -76l-100 307l-227 -233l-119 133l264 188l-291 140z" />
    <glyph glyph-name="plus" unicode="+" horiz-adv-x="1228" 
d="M127 428v180h428v428h180v-428h428v-180h-428v-428h-180v428h-428z" />
    <glyph glyph-name="comma" unicode="," horiz-adv-x="569" 
d="M-115 -272l232 501h245l-284 -501h-193z" />
    <glyph glyph-name="hyphen" unicode="-" horiz-adv-x="681" 
d="M72 473l32 156h539l-31 -156h-540z" />
    <glyph glyph-name="period" unicode="." horiz-adv-x="569" 
d="M70 0l47 229h229l-47 -229h-229z" />
    <glyph glyph-name="slash" unicode="/" horiz-adv-x="569" 
d="M0 -25l492 1479h180l-492 -1479h-180z" />
    <glyph glyph-name="zero" unicode="0" 
d="M96 442q0 85 11.5 178t36 192t61 191t90 174.5t117.5 143.5t149.5 97t181.5 36q133 0 221.5 -61t127 -162t38.5 -240q0 -69 -8 -149t-28.5 -180t-52 -194t-83.5 -185t-117.5 -158t-159.5 -108.5t-204 -41.5q-101 0 -176.5 37.5t-119 103.5t-64.5 147.5t-21 178.5z
M301 430q0 -53 8.5 -99.5t29 -91t61 -70.5t96.5 -26q91 0 167.5 69.5t123.5 172t80 225t46 223t13 171.5q0 282 -205 282q-74 0 -138.5 -47t-109 -124t-79 -169.5t-54 -190.5t-29.5 -180.5t-10 -144.5z" />
    <glyph glyph-name="one" unicode="1" 
d="M391 0l256 1194l-254 -176l-94 151l422 261h182l-307 -1430h-205z" />
    <glyph glyph-name="two" unicode="2" 
d="M-4 0l45 209q17 14 85 66t120 93t133.5 108.5t143 123.5t130.5 126t113.5 128.5t74 119t29.5 107.5q0 59 -20.5 101t-56.5 63.5t-76 31t-88 9.5q-168 0 -332 -90l18 186q195 72 367 72q83 0 153.5 -19.5t128 -59.5t90.5 -108t33 -159q0 -98 -63.5 -214t-135.5 -201
t-210 -203t-198.5 -164t-189.5 -139q-13 -10 -20 -15v-4h660l-37 -168h-897z" />
    <glyph glyph-name="three" unicode="3" 
d="M348 659l31 168q516 0 516 273q0 51 -21.5 89t-57.5 58t-77 29.5t-86 9.5q-168 0 -342 -72l21 189q8 2 37.5 8.5t40 9t37.5 8.5t41 8.5t38 6.5t41 5.5t38 3t40 1.5q71 0 132.5 -8.5t122.5 -32t104 -60.5t69.5 -98t26.5 -141q0 -97 -52.5 -178.5t-134.5 -130t-178 -62.5
v-4q112 -30 176 -107.5t64 -191.5q0 -110 -50.5 -201t-132 -147t-178.5 -86.5t-196 -30.5q-228 0 -406 64l49 182q166 -78 326 -78q68 0 133.5 17.5t122.5 52.5t92 95.5t35 137.5q0 48 -19 85t-54.5 59.5t-74 37t-92 21t-92.5 8.5t-90 2z" />
    <glyph glyph-name="four" unicode="4" 
d="M709 494l188 768h-4l-633 -768h449zM596 0l72 326h-668l39 168l776 936h295l-205 -936h185l-33 -168h-189l-71 -326h-201z" />
    <glyph glyph-name="five" unicode="5" 
d="M227 688l170 742h768l-35 -168h-579l-86 -373q98 10 117 10q197 0 312.5 -98t115.5 -291q0 -132 -47 -235t-130.5 -168t-193.5 -98.5t-240 -33.5q-149 0 -325 45l35 183q160 -60 278 -60q85 0 159 21.5t132.5 63t92.5 110t34 154.5q0 64 -25.5 111.5t-70.5 74.5t-99 40
t-118 13q-128 0 -265 -43z" />
    <glyph glyph-name="six" unicode="6" 
d="M1184 1399l-64 -164q-96 51 -217 51q-397 0 -543 -526l5 -4q69 72 146.5 107.5t176.5 35.5q161 0 262 -100.5t101 -261.5q0 -117 -33.5 -218.5t-96.5 -178.5t-162 -121t-222 -44q-204 0 -310 115t-106 328q0 85 10.5 175.5t36.5 193t65 196t101 180.5t138.5 151
t183.5 102t231 38q163 0 297 -55zM846 510q0 107 -63 164t-154 57q-89 0 -159.5 -53.5t-107 -136.5t-36.5 -176q0 -96 52.5 -159t151.5 -63q95 0 169.5 58t110.5 140.5t36 168.5z" />
    <glyph glyph-name="seven" unicode="7" 
d="M260 1262l39 168h905l-41 -183l-782 -1247h-236l803 1262h-688z" />
    <glyph glyph-name="eight" unicode="8" 
d="M459 1069q0 -74 61.5 -139t143.5 -113q14 8 47 24.5t50.5 25.5t46 26.5t45 31t37 34.5t31 42t18 48.5t7.5 58.5q0 82 -66 130t-145 48q-50 0 -96.5 -12t-88 -36t-66.5 -68t-25 -101zM254 1071q0 100 41.5 176.5t111 120t151 65t171.5 21.5q75 0 146.5 -19t135 -56.5
t102 -103.5t38.5 -151q0 -68 -28.5 -129.5t-76.5 -107.5t-106 -80t-123 -55q107 -68 160 -143.5t53 -176.5t-41 -187.5t-110 -145t-160.5 -91.5t-190.5 -33q-90 0 -170 20.5t-147 62.5t-106 114.5t-39 167.5q0 87 34 162t90.5 125.5t121.5 83t134 47.5q-88 55 -140 135.5
t-52 177.5zM270 373q0 -107 73 -168.5t183 -61.5q121 0 210 79t89 200q0 24 -5.5 46t-13.5 40t-22.5 35.5t-26 30t-31 26t-31.5 21.5t-33 18.5t-29 14t-27 11.5t-20 9q-57 -15 -110 -40t-101 -61.5t-76.5 -88.5t-28.5 -111z" />
    <glyph glyph-name="nine" unicode="9" 
d="M57 31l64 164q98 -52 217 -52q397 0 543 527l-4 4q-138 -144 -324 -144q-161 0 -262 101t-101 262q0 117 33.5 218t96.5 178t162.5 121t222.5 44q204 0 309.5 -114.5t105.5 -327.5q0 -85 -10.5 -175.5t-36.5 -193t-65 -196.5t-101 -181t-138.5 -151t-183.5 -102t-231 -38
q-161 0 -297 56zM395 920q0 -108 63.5 -165t153.5 -57q89 0 159.5 53.5t107 137t36.5 176.5q0 96 -52 158.5t-152 62.5q-95 0 -169.5 -57.5t-110.5 -140t-36 -168.5z" />
    <glyph glyph-name="colon" unicode=":" horiz-adv-x="569" 
d="M514 1044l-47 -229h-229l47 229h229zM70 0l47 229h229l-47 -229h-229z" />
    <glyph glyph-name="semicolon" unicode=";" horiz-adv-x="569" 
d="M-115 -272l232 501h245l-284 -501h-193zM514 1044l-47 -229h-229l47 229h229z" />
    <glyph glyph-name="less" unicode="&#x3c;" horiz-adv-x="1228" 
d="M1165 1053v-181l-807 -354l807 -354v-180l-1040 456v156z" />
    <glyph glyph-name="equal" unicode="=" horiz-adv-x="1228" 
d="M127 643v180h1036v-180h-1036zM127 213v180h1036v-180h-1036z" />
    <glyph glyph-name="greater" unicode="&#x3e;" horiz-adv-x="1228" 
d="M125 -16v180l807 354l-807 354v181l1040 -457v-156z" />
    <glyph glyph-name="question" unicode="?" horiz-adv-x="1024" 
d="M311 1214l23 191q176 49 321 49q65 0 122 -9.5t111.5 -34t93 -61.5t62 -95.5t23.5 -133.5q0 -44 -7.5 -83t-25.5 -73.5t-34 -59.5t-48.5 -56.5t-51.5 -48.5t-61.5 -51.5t-60.5 -49.5q-59 -50 -93.5 -85.5t-53.5 -72.5t-25.5 -61.5t-15.5 -77.5h-193q17 72 26 106.5
t25.5 79t31 67t43.5 56t63.5 61.5t89.5 69q82 61 128 121.5t46 140.5q0 172 -248 172q-109 0 -291 -60zM301 0l47 229h230l-48 -229h-229z" />
    <glyph glyph-name="at" unicode="@" horiz-adv-x="1638" 
d="M801 444q72 0 134 54t95 130.5t33 149.5t-46 122.5t-112 49.5q-77 0 -141.5 -51t-97.5 -123.5t-33 -144.5q0 -83 45.5 -135t122.5 -52zM1311 1090l-137 -521q-17 -62 -17 -86q2 -26 9.5 -38.5t27.5 -12.5q92 0 171 115.5t79 267.5q0 155 -74 269t-195.5 170.5
t-273.5 56.5q-169 0 -302.5 -80t-205 -216.5t-71.5 -303.5q0 -283 166 -437.5t434 -154.5q129 0 246.5 48.5t197.5 133.5h156q-100 -153 -261.5 -239.5t-347.5 -86.5q-159 0 -297 50.5t-241 143t-162 233.5t-59 313q0 217 102 387.5t272 261t375 90.5q134 0 258.5 -44.5
t218.5 -123t150.5 -193.5t56.5 -247q0 -111 -35.5 -208t-90.5 -161.5t-121 -111.5t-127.5 -68t-110.5 -21q-48 0 -82 30t-37 85h-4q-47 -49 -106 -82t-117 -33q-127 0 -215 96.5t-88 231.5q0 130 53.5 246.5t156 192t230.5 75.5q150 0 233 -135l31 107h154z" />
    <glyph glyph-name="A" unicode="A" horiz-adv-x="1478" 
d="M1065 528l-135 680l-432 -680h567zM-63 0l927 1430h203l315 -1430h-211l-75 360h-703l-229 -360h-227z" />
    <glyph glyph-name="B" unicode="B" horiz-adv-x="1251" 
d="M571 1262l-96 -443h187q60 0 116.5 14t106.5 42t80.5 79t29.5 117q-1 48 -18 83.5t-43.5 55.5t-66 32t-76.5 16t-84 4h-136zM94 0l309 1430h381q194 0 305 -80t111 -254q0 -142 -82 -233t-211 -124v-4q121 -43 172 -110t51 -183q0 -63 -18.5 -123.5t-62.5 -119t-109 -102
t-167 -70.5t-228 -27h-451zM440 651l-104 -483h192q62 0 115.5 7.5t104.5 27t87 50.5t57.5 81.5t20.5 116.5q-3 200 -286 200h-187z" />
    <glyph glyph-name="C" unicode="C" horiz-adv-x="1251" 
d="M1112 205l-27 -191q-121 -39 -262 -39q-146 0 -266 39t-211.5 117t-142.5 205t-51 293q0 109 29 220.5t96 221t164 194t244.5 137t324.5 52.5q180 0 340 -65l-60 -177q-144 62 -276 62q-127 0 -233.5 -36t-181.5 -98t-127.5 -146t-77.5 -179t-25 -197q0 -226 134 -344
t353 -118q137 0 256 49z" />
    <glyph glyph-name="D" unicode="D" horiz-adv-x="1478" 
d="M86 0l303 1430h316q184 0 324 -44.5t225 -124t127 -182.5t42 -227q0 -191 -59 -347.5t-171.5 -269t-286.5 -174t-394 -61.5h-426zM559 1249l-227 -1069h217q302 0 479.5 178t177.5 471q0 77 -14.5 138.5t-51.5 115.5t-96 89.5t-151.5 56t-214.5 20.5h-119z" />
    <glyph glyph-name="E" unicode="E" 
d="M86 0l313 1430h777l-41 -181h-566l-92 -418h531l-35 -180h-537l-104 -471h600l-39 -180h-807z" />
    <glyph glyph-name="F" unicode="F" horiz-adv-x="1024" 
d="M78 0l311 1430h750l-35 -181h-547l-90 -418h504l-39 -180h-504l-141 -651h-209z" />
    <glyph glyph-name="G" unicode="G" horiz-adv-x="1478" 
d="M1448 1372l-62 -176q-164 78 -372 78q-127 0 -233.5 -36t-181.5 -98t-127.5 -146t-77.5 -179t-25 -197q0 -226 134 -344t353 -118q115 0 170 18l94 440h-299l41 168h498l-166 -764q-202 -43 -371 -43q-146 0 -266 39t-211.5 117t-142.5 205t-51 293q0 109 29 220.5
t96 221t164 194t244.5 137t324.5 52.5q236 0 438 -82z" />
    <glyph glyph-name="H" unicode="H" horiz-adv-x="1478" 
d="M94 0l301 1430h207l-125 -599h680l129 599h201l-301 -1430h-209l141 651h-678l-137 -651h-209z" />
    <glyph glyph-name="I" unicode="I" horiz-adv-x="569" 
d="M78 0l307 1430h207l-307 -1430h-207z" />
    <glyph glyph-name="J" unicode="J" horiz-adv-x="796" 
d="M815 1430l-240 -1086q-44 -202 -147 -285.5t-309 -83.5q-73 0 -176 35l37 187q65 -41 155 -41q52 0 93 16.5t66.5 41.5t46 65t31 75.5t21.5 85.5l219 990h203z" />
    <glyph glyph-name="K" unicode="K" horiz-adv-x="1366" 
d="M106 0l310 1430h205l-140 -629l4 -4l686 633h271l-770 -705l567 -725h-258l-524 684l-144 -684h-207z" />
    <glyph glyph-name="L" unicode="L" horiz-adv-x="1024" 
d="M78 0l309 1430h207l-270 -1250h594l-37 -180h-803z" />
    <glyph glyph-name="M" unicode="M" horiz-adv-x="1933" 
d="M86 0l328 1430h307l194 -1170l697 1170h336l-306 -1430h-204l262 1225h-4l-735 -1225h-199l-199 1225h-4l-274 -1225h-199z" />
    <glyph glyph-name="N" unicode="N" horiz-adv-x="1478" 
d="M86 0l297 1430h270l404 -1199h4l254 1199h194l-311 -1430h-264l-404 1188h-4l-243 -1188h-197z" />
    <glyph glyph-name="O" unicode="O" horiz-adv-x="1593" 
d="M152 582q0 102 23.5 205.5t68.5 201t115 182t157 147.5t201 99.5t241 36.5q274 0 427 -153t153 -427q0 -137 -31.5 -267t-96.5 -245t-157 -201t-221 -136t-280 -50q-294 0 -447 155t-153 452zM369 575q0 -195 100.5 -307t290.5 -112q102 0 193 42t157 111.5t114.5 159
t72.5 186.5t24 191q0 208 -93 318t-276 110q-169 0 -304.5 -99t-207 -258t-71.5 -342z" />
    <glyph glyph-name="P" unicode="P" 
d="M78 0l311 1430h356q86 0 162.5 -19t145.5 -60t110 -116.5t41 -177.5q0 -218 -155 -352t-437 -134h-204l-125 -571h-205zM557 1249l-108 -497h108q69 0 126 6t115.5 24t98.5 47.5t65 79.5t25 117q0 58 -18 99.5t-45.5 65t-72 37t-87 17.5t-100.5 4h-107z" />
    <glyph glyph-name="Q" unicode="Q" horiz-adv-x="1593" 
d="M369 575q0 -195 100.5 -307t290.5 -112q102 0 193 42t157 111.5t114.5 159t72.5 186.5t24 191q0 208 -93 318t-276 110q-169 0 -304.5 -99t-207 -258t-71.5 -342zM995 -264l-190 244q-20 -5 -53 -5q-294 0 -447 155t-153 452q0 102 23.5 205.5t68.5 201t115 182
t157 147.5t201 99.5t241 36.5q274 0 427 -153t153 -427q0 -141 -34.5 -275t-100.5 -249.5t-169.5 -203t-232.5 -130.5l254 -280h-260z" />
    <glyph glyph-name="R" unicode="R" horiz-adv-x="1251" 
d="M86 0l305 1430h281q46 0 72 -0.5t75.5 -3.5t81 -9t76 -18t73.5 -29t61.5 -44t51 -60.5t31 -81t12.5 -103.5q0 -145 -101.5 -255t-246.5 -132q26 -16 48.5 -45.5t37 -61t28.5 -75t21.5 -74.5t17.5 -75t15 -62l78 -301h-217l-86 375q-27 116 -52 170.5t-55.5 72t-87.5 17.5
h-182l-133 -635h-205zM557 1249l-92 -434h162q47 0 93.5 6t96 23t87 43t61.5 68.5t24 97.5q0 109 -58.5 152.5t-182.5 43.5h-191z" />
    <glyph glyph-name="S" unicode="S" horiz-adv-x="1024" 
d="M1040 1386l-57 -182q-116 70 -260 70q-54 0 -101.5 -11.5t-90 -36t-67 -69.5t-24.5 -106q0 -48 27 -89.5t70 -73t95 -62.5t104 -67.5t95 -79.5t70 -106t27 -139q0 -84 -29.5 -163t-87.5 -146.5t-155.5 -108.5t-221.5 -41q-114 0 -205.5 21t-193.5 61l65 189
q64 -40 145.5 -65t155.5 -25q78 0 139.5 22.5t97.5 60t54.5 81.5t18.5 90q0 59 -27 105.5t-70 79t-95 62.5t-104 64.5t-95 76t-70 105t-27 144.5q0 94 40.5 172.5t107.5 129t151 78t174 27.5q179 0 344 -68z" />
    <glyph glyph-name="T" unicode="T" 
d="M1323 1430l-39 -181h-444l-269 -1249h-206l268 1249h-445l39 181h1096z" />
    <glyph glyph-name="U" unicode="U" horiz-adv-x="1478" 
d="M1507 1430l-184 -840q-71 -321 -224 -468t-403 -147q-82 0 -152.5 16t-121 43t-91 63.5t-66 75.5t-42 82t-23.5 80.5t-7 72.5q0 28 3 60t9.5 71t11 63t14 69t11.5 56l151 703h205l-184 -863q-17 -87 -17 -127q0 -135 87 -209.5t225 -74.5q63 0 117 18.5t93 47.5
t72.5 75.5t55.5 90t42 104.5t31.5 106t24.5 107l158 725h204z" />
    <glyph glyph-name="V" unicode="V" horiz-adv-x="1366" 
d="M1556 1430l-858 -1430h-245l-232 1430h205l180 -1225h4l721 1225h225z" />
    <glyph glyph-name="W" unicode="W" horiz-adv-x="2048" 
d="M346 0l-117 1430h205l78 -1223h4l569 1223h271l37 -1225h4l618 1225h219l-747 -1430h-266l-31 1237h-4l-570 -1237h-270z" />
    <glyph glyph-name="X" unicode="X" horiz-adv-x="1366" 
d="M612 764l-348 666h221l283 -547l479 547h260l-630 -693l376 -737h-227l-303 618l-543 -618h-254z" />
    <glyph glyph-name="Y" unicode="Y" horiz-adv-x="1366" 
d="M477 0l123 598l-383 832h225l285 -648l563 648h260l-749 -832l-123 -598h-201z" />
    <glyph glyph-name="Z" unicode="Z" 
d="M-27 0l33 180l942 1069h-702l37 181h952l-33 -183l-942 -1067h739l-34 -180h-992z" />
    <glyph glyph-name="bracketleft" unicode="[" horiz-adv-x="681" 
d="M39 -287l397 1835h393l-32 -143h-203l-336 -1548h205l-29 -144h-395z" />
    <glyph glyph-name="backslash" unicode="\" horiz-adv-x="569" 
d="M492 -25l-492 1479h180l492 -1479h-180z" />
    <glyph glyph-name="bracketright" unicode="]" horiz-adv-x="681" 
d="M713 1548l-398 -1835h-393l33 144h203l336 1548h-205l28 143h396z" />
    <glyph glyph-name="asciicircum" unicode="^" horiz-adv-x="1228" 
d="M164 602l407 828h168l408 -828h-180l-312 639l-311 -639h-180z" />
    <glyph glyph-name="underscore" unicode="_" horiz-adv-x="1024" 
d="M0 -154h1024v-102h-1024v102z" />
    <glyph glyph-name="grave" unicode="`" horiz-adv-x="569" 
d="M420 1485l137 -295h-137l-207 295h207z" />
    <glyph glyph-name="a" unicode="a" 
d="M262 825l35 191q69 23 151.5 38t139.5 15q83 0 154 -17.5t131 -54.5t94 -103.5t34 -156.5q0 -76 -18 -164q-9 -45 -29 -142t-31 -152.5t-25.5 -134.5t-23.5 -144h-178l35 174h-4q-49 -92 -141.5 -145.5t-198.5 -53.5q-142 0 -238 74.5t-96 214.5q0 87 31.5 153.5
t85.5 109t133.5 69.5t169 38t199.5 11q18 0 41 -1t52.5 -2.5t45.5 -2.5q10 50 10 68q0 206 -239 206q-82 0 -167.5 -24t-152.5 -64zM770 502h-147q-48 0 -94 -5.5t-96.5 -21t-88 -40t-62 -67t-24.5 -96.5q0 -66 49.5 -103.5t122.5 -37.5q93 0 168.5 57t117.5 139.5t54 174.5
z" />
    <glyph glyph-name="b" unicode="b" horiz-adv-x="1251" 
d="M356 406q0 -114 67.5 -194.5t192.5 -80.5q105 0 186.5 77.5t122 195.5t40.5 251q0 127 -64.5 192.5t-169.5 65.5q-109 0 -196 -73.5t-133 -188.5t-46 -245zM72 0l325 1536h193l-129 -604h4q49 66 136 101.5t196 35.5q173 0 272.5 -111.5t99.5 -285.5q0 -145 -34 -270.5
t-98 -221t-165.5 -150.5t-228.5 -55q-81 0 -140.5 14.5t-99.5 43.5t-64.5 61.5t-47.5 79.5h-4l-35 -174h-180z" />
    <glyph glyph-name="c" unicode="c" horiz-adv-x="909" 
d="M936 1028l-47 -166q-94 51 -187 51q-180 0 -290.5 -138t-110.5 -335q0 -147 73 -228t210 -81q96 0 211 47l-35 -178q-88 -25 -201 -25q-213 0 -338 112.5t-125 324.5q0 133 39 252t110 209t180 143t241 53q152 0 270 -41z" />
    <glyph glyph-name="d" unicode="d" horiz-adv-x="1251" 
d="M1307 1536l-258 -1190q-42 -194 -60 -346h-180q28 136 35 160h-4q-96 -185 -357 -185q-92 0 -166.5 35t-122 95.5t-73 139.5t-25.5 169q0 125 35.5 241t101 209t170.5 149t234 56q112 0 203 -50t133 -147h4l137 664h193zM301 428q0 -132 64 -214.5t190 -82.5
q70 0 129.5 33t99.5 85.5t68.5 119t41.5 133t13 127.5q0 122 -69 203t-191 81q-81 0 -149 -47.5t-109.5 -121.5t-64.5 -156.5t-23 -159.5z" />
    <glyph glyph-name="e" unicode="e" 
d="M328 623h534q6 46 6 79q0 95 -57.5 153t-163.5 58q-113 0 -199.5 -84t-119.5 -206zM918 195l-31 -177q-172 -43 -309 -43q-80 0 -148 13t-131 46.5t-107 86t-70 135.5t-26 190q0 110 38.5 219.5t108.5 200t181 147t244 56.5q188 0 290.5 -106t102.5 -293q0 -75 -19 -191
h-735q-6 -35 -6 -65q0 -154 85 -218.5t237 -64.5q141 0 295 64z" />
    <glyph glyph-name="f" unicode="f" horiz-adv-x="796" 
d="M180 0l193 889h-250l29 155h254l24 103q10 44 19.5 78.5t27.5 79.5t38.5 78.5t52.5 68.5t70.5 57.5t91.5 37t116 14.5q67 0 147 -23l-39 -154q-14 7 -45 14t-47 7q-49 0 -87.5 -16t-63 -40t-43 -62t-28 -70t-19.5 -76l-21 -97h277l-31 -155h-281l-192 -889h-193z" />
    <glyph glyph-name="g" unicode="g" horiz-adv-x="1251" 
d="M1020 1044h178l-240 -1120q-36 -164 -183 -271.5t-378 -107.5q-66 0 -169.5 19t-180.5 57l43 172q173 -92 334 -92q154 0 242.5 84.5t121.5 220.5l27 113h-4q-50 -61 -120.5 -90t-190.5 -29q-56 0 -111 17t-105.5 52t-88.5 84t-61 117.5t-23 147.5q0 189 68.5 339
t188.5 232t269 80q114 0 207 -52t135 -157h4zM315 428q0 -112 60.5 -192t173.5 -80q66 0 127.5 26.5t114 80.5t84.5 148.5t32 217.5q0 122 -69 203t-191 81q-80 0 -145.5 -47t-105 -120.5t-60.5 -156.5t-21 -161z" />
    <glyph glyph-name="h" unicode="h" horiz-adv-x="1251" 
d="M72 0l321 1536h193l-129 -623h4q53 76 141 116t189 40q158 0 253 -83.5t95 -244.5q0 -67 -25 -190l-115 -551h-192l129 625q10 58 10 98q0 84 -51.5 137t-138.5 53q-68 0 -128 -28t-101.5 -70.5t-74 -97t-50.5 -101.5t-27 -90l-111 -526h-192z" />
    <glyph glyph-name="i" unicode="i" horiz-adv-x="569" 
d="M84 0l221 1044h193l-222 -1044h-192zM606 1495l-45 -217h-217l45 217h217z" />
    <glyph glyph-name="j" unicode="j" horiz-adv-x="569" 
d="M-225 -418l35 152q47 -21 86 -21q73 0 110 49.5t64 174.5l235 1107h193l-246 -1159q-8 -38 -15 -65.5t-21 -65.5t-29.5 -65t-41 -56t-56.5 -47t-74 -29.5t-95 -11.5q-26 0 -74.5 12.5t-70.5 24.5zM606 1495l-45 -217h-217l45 217h217z" />
    <glyph glyph-name="k" unicode="k" 
d="M72 0l325 1536h193l-195 -901h4l486 409h282l-592 -462l426 -582h-245l-379 537l-113 -537h-192z" />
    <glyph glyph-name="l" unicode="l" horiz-adv-x="569" 
d="M84 0l326 1536h192l-326 -1536h-192z" />
    <glyph glyph-name="m" unicode="m" horiz-adv-x="1820" 
d="M72 0l192 926q0 1 21 118h180l-25 -143h4q55 82 141.5 125t190.5 43q98 0 175 -46.5t102 -135.5q79 93 166.5 137.5t203.5 44.5q128 0 209.5 -76t81.5 -196q0 -76 -31 -219l-120 -578h-193l139 662q13 67 13 98q0 67 -41 110t-113 43q-69 0 -129 -37t-100.5 -97.5
t-67.5 -124.5t-41 -130l-117 -524h-192l139 662q12 62 12 98q0 67 -41 110t-112 43q-69 0 -129 -37t-100.5 -97.5t-67.5 -124.5t-41 -130l-117 -524h-192z" />
    <glyph glyph-name="n" unicode="n" horiz-adv-x="1251" 
d="M72 0l182 885q28 148 29 159h180l-33 -165h4q52 83 141 136.5t216 53.5q158 0 253 -83.5t95 -244.5q0 -67 -25 -190l-115 -551h-192l129 625q10 58 10 98q0 84 -51.5 137t-138.5 53q-68 0 -128 -28t-101.5 -70.5t-74 -97t-50.5 -101.5t-27 -90l-111 -526h-192z" />
    <glyph glyph-name="o" unicode="o" horiz-adv-x="1251" 
d="M96 440q0 176 68 317t205 226.5t323 85.5q213 0 338 -121.5t125 -335.5q0 -106 -24.5 -202t-73.5 -175.5t-118 -137.5t-163.5 -90t-204.5 -32q-221 0 -348 119t-127 346zM301 426q0 -131 68.5 -213t199.5 -82q105 0 194 71t138 181.5t49 228.5q0 125 -71 213t-195 88
q-74 0 -138 -30t-108 -79t-75.5 -112.5t-46.5 -131.5t-15 -134z" />
    <glyph glyph-name="p" unicode="p" horiz-adv-x="1251" 
d="M-33 -430l240 1128q45 262 55 346h180l-34 -159h4q54 93 153.5 138.5t216.5 45.5q173 0 273 -111.5t100 -285.5q0 -145 -34 -270.5t-98 -221t-165.5 -150.5t-228.5 -55q-265 0 -340 181h-4l-125 -586h-193zM342 406q0 -114 67.5 -194.5t192.5 -80.5q79 0 146 45
t110.5 119.5t67.5 168t24 191.5q0 127 -64 192.5t-169 65.5q-109 0 -196 -73.5t-133 -188.5t-46 -245z" />
    <glyph glyph-name="q" unicode="q" horiz-adv-x="1251" 
d="M1198 1044l-313 -1474h-191l113 534h-4q-96 -129 -320 -129q-92 0 -166.5 35t-122 95.5t-73 139.5t-25.5 169q0 125 35.5 241t101 209t170.5 149t234 56q114 0 207 -52t135 -157h4l37 184h178zM301 428q0 -132 64 -214.5t190 -82.5q70 0 129.5 33t99.5 85.5t68.5 119
t41.5 133t13 127.5q0 122 -69 203t-191 81q-81 0 -149 -47.5t-109.5 -121.5t-64.5 -156.5t-23 -159.5z" />
    <glyph glyph-name="r" unicode="r" horiz-adv-x="796" 
d="M72 0l182 885q28 148 29 159h180l-33 -165h4q52 83 141 136.5t216 53.5q40 0 88 -18l-43 -170q-53 20 -82 20q-68 0 -128 -28t-101.5 -70.5t-74 -97t-50.5 -101.5t-27 -90l-109 -514h-192z" />
    <glyph glyph-name="s" unicode="s" horiz-adv-x="796" 
d="M797 1012l-58 -152q-104 53 -209 53q-35 0 -66.5 -5.5t-61.5 -18.5t-48 -39.5t-18 -63.5q0 -36 19.5 -67t51 -55t69.5 -48.5t76 -53t69.5 -62t51 -83t19.5 -108.5q0 -72 -25.5 -131t-66 -96t-94 -62t-105.5 -35t-104 -10q-78 0 -138.5 8t-87 16t-79.5 26l37 165
q145 -59 239 -59q89 0 154 40t65 122q0 41 -26.5 78t-66 64t-85.5 60.5t-85.5 67t-66 85.5t-26.5 114q0 64 24.5 116.5t64 87t92 58.5t105.5 34.5t107 10.5q133 0 273 -57z" />
    <glyph glyph-name="t" unicode="t" horiz-adv-x="796" 
d="M123 889l29 155h233l51 242l207 72l-65 -314h286l-30 -155h-289l-96 -449q-31 -146 -31 -196q0 -113 139 -113q73 0 135 27l-28 -160q-62 -23 -189 -23q-65 0 -115 20.5t-78.5 54.5t-42.5 73.5t-14 83.5q0 70 37 246l90 436h-229z" />
    <glyph glyph-name="u" unicode="u" horiz-adv-x="1251" 
d="M1196 1044l-182 -884q-27 -146 -29 -160h-180l33 166h-4q-52 -83 -141.5 -137t-215.5 -54q-158 0 -253 83.5t-95 244.5q0 68 25 191l114 550h193l-129 -624q-10 -58 -10 -98q0 -84 51.5 -137.5t138.5 -53.5q68 0 128 28t101.5 70.5t74 97t50.5 101.5t27 90l111 526h192z
" />
    <glyph glyph-name="v" unicode="v" horiz-adv-x="1024" 
d="M305 0l-164 1044h205l107 -843h4l465 843h204l-596 -1044h-225z" />
    <glyph glyph-name="w" unicode="w" horiz-adv-x="1705" 
d="M256 0l-115 1044h193l72 -839h4l446 839h234l71 -839h4l434 839h213l-571 -1044h-221l-82 840h-4l-451 -840h-227z" />
    <glyph glyph-name="x" unicode="x" horiz-adv-x="1024" 
d="M-86 0l483 551l-221 493h211l156 -376l313 376h234l-445 -501l254 -543h-217l-180 410l-348 -410h-240z" />
    <glyph glyph-name="y" unicode="y" horiz-adv-x="1024" 
d="M-78 -440l33 159q31 -18 84 -18q86 1 150 59t126 183l-168 1101h201l121 -833h4l455 833h207l-713 -1241q-32 -56 -54 -89.5t-54 -69.5t-65 -55t-78.5 -31.5t-102.5 -12.5q-73 0 -146 15z" />
    <glyph glyph-name="z" unicode="z" horiz-adv-x="1024" 
d="M-12 0l32 168l744 721h-580l31 155h827l-38 -167l-750 -721h618l-34 -156h-850z" />
    <glyph glyph-name="braceleft" unicode="{" horiz-adv-x="681" 
d="M860 1548l-31 -143h-104q-60 0 -90.5 -37t-46.5 -113l-80 -372q-12 -53 -36 -96.5t-51.5 -70.5t-59 -46t-55 -27t-42.5 -10v-4q20 -4 41 -13.5t45.5 -29t40 -56t15.5 -84.5q0 -32 -9 -69l-78 -371q-8 -40 -8 -69q0 -80 74 -80h104l-28 -144h-160q-71 0 -126.5 53.5
t-55.5 147.5q0 30 6 57l82 377q6 30 6 58q0 74 -39.5 113.5t-97.5 39.5l30 143q70 7 137.5 64t86.5 145l82 379q29 135 105.5 196.5t182.5 61.5h160z" />
    <glyph glyph-name="bar" unicode="|" horiz-adv-x="454" 
d="M188 1536h181v-2048h-181v2048z" />
    <glyph glyph-name="braceright" unicode="}" horiz-adv-x="681" 
d="M-176 -287l31 144h104q60 0 90.5 36.5t46.5 112.5l80 373q12 53 36 96.5t51.5 70.5t59 46t55 27t42.5 10v4q-20 4 -40.5 13.5t-45 28.5t-40 55.5t-15.5 84.5q0 37 8 70l78 370q8 40 8 70q0 80 -74 80h-104l28 143h160q71 0 126.5 -53.5t55.5 -146.5q0 -31 -6 -58
l-82 -377q-6 -30 -6 -57q0 -74 39.5 -114t97.5 -40l-30 -143q-70 -7 -137.5 -64t-86.5 -145l-82 -379q-29 -135 -105.5 -196.5t-182.5 -61.5h-160z" />
    <glyph glyph-name="asciitilde" unicode="~" horiz-adv-x="1228" 
d="M1044 682l74 -143q-29 -41 -49 -65.5t-52.5 -54t-71 -43.5t-83.5 -14q-84 0 -209 68q-132 74 -235 74q-61 0 -101 -41.5t-71 -108.5l-74 144q91 174 256 174q84 0 227 -64q19 -8 56 -25.5t58 -26.5t48.5 -17.5t46.5 -8.5q29 0 54.5 12t50 39t37.5 45t38 56z" />
    <glyph glyph-name="uni00A0" unicode="&#xa0;" horiz-adv-x="569" 
 />
    <glyph glyph-name="exclamdown" unicode="&#xa1;" horiz-adv-x="796" 
d="M510 643l-199 -1028h-241l254 1028h186zM614 1044l-47 -229h-229l47 229h229z" />
    <glyph glyph-name="cent" unicode="&#xa2;" 
d="M479 182l230 721q-154 -26 -245 -156t-91 -307q0 -184 106 -258zM336 -272l90 282q-123 44 -190.5 146t-67.5 256q0 133 38.5 252t109.5 209t180 143t241 53h23l74 229h114l-76 -239q65 -8 136 -31l-47 -166q-60 33 -136 41l-243 -764q31 -8 73 -8q96 0 211 47l-35 -178
q-87 -25 -200 -25q-49 0 -99 9l-81 -256h-115z" />
    <glyph glyph-name="sterling" unicode="&#xa3;" 
d="M18 0l35 180h195l114 533h-174l25 118h174l23 97q21 95 44.5 166t65 142t95 116.5t135 73.5t184.5 28q171 0 289 -59l-49 -170q-120 49 -207 49q-86 0 -148.5 -26t-102.5 -79t-63 -112.5t-43 -147.5l-18 -78h332l-21 -118h-336l-114 -533h510l-35 -180h-910z" />
    <glyph glyph-name="currency" unicode="&#xa4;" 
d="M90 299l115 117q-103 121 -103 299q0 191 103 303l-115 110l105 107l112 -113q58 47 139.5 74t163.5 27q177 0 308 -101l110 113l102 -107l-110 -110q98 -110 98 -303q0 -183 -98 -299l110 -117l-102 -104l-110 116q-119 -104 -308 -104q-187 0 -303 104l-112 -116z
M283 715q0 -141 96 -240.5t231 -99.5q139 0 233.5 101t94.5 239q0 137 -95.5 238.5t-232.5 101.5q-136 0 -231.5 -100t-95.5 -240z" />
    <glyph glyph-name="yen" unicode="&#xa5;" 
d="M371 0l65 332h-284l22 119h285l28 147l-12 33h-264l22 119h199l-246 680h213l209 -648l475 648h205l-497 -680h219l-23 -119h-285l-24 -33l-29 -147h301l-22 -119h-301l-66 -332h-190z" />
    <glyph glyph-name="brokenbar" unicode="&#xa6;" horiz-adv-x="454" 
d="M188 1382h181v-716h-181v716zM188 358h181v-716h-181v716z" />
    <glyph glyph-name="section" unicode="&#xa7;" 
d="M1085 1389l-55 -168q-127 65 -282 65q-43 0 -85 -7t-83.5 -22.5t-67 -46t-25.5 -71.5q0 -38 23 -70.5t60.5 -55t85.5 -47t98.5 -45.5t98.5 -51t85.5 -63t60.5 -82t23 -107q0 -53 -19 -98.5t-54.5 -82t-72.5 -63.5t-88 -55q56 -37 84.5 -84t28.5 -124q0 -71 -28.5 -135
t-85.5 -116.5t-153.5 -83t-221.5 -30.5q-224 0 -381 70l55 170q188 -72 313 -72q58 0 108 8t98 27.5t76 58t28 92.5q0 42 -29 75.5t-75.5 57t-102 46.5t-111.5 49.5t-102.5 59t-75.5 83t-29 113.5q0 55 18.5 102.5t56.5 87t72.5 67t88.5 62.5q-125 90 -125 219q0 61 24 117
t75 105.5t142.5 79.5t213.5 30q185 0 335 -65zM637 776l-107 53q-7 -5 -34.5 -26.5t-39 -31t-33 -31t-31.5 -37.5t-18.5 -39t-8.5 -46q0 -77 178 -161l137 -64q84 56 112 84q50 52 50 109q0 60 -52 102.5t-153 87.5z" />
    <glyph glyph-name="dieresis" unicode="&#xa8;" horiz-adv-x="569" 
d="M690 1204h-180l43 205h180zM352 1204h-180l43 205h180z" />
    <glyph glyph-name="copyright" unicode="&#xa9;" horiz-adv-x="1638" 
d="M1083 584h150q-24 -149 -122 -234.5t-232 -85.5q-189 0 -304.5 128t-115.5 323q0 197 111 321.5t302 124.5q140 0 240.5 -81t120.5 -226h-150q-15 75 -72 119.5t-137 44.5q-125 0 -192.5 -83t-67.5 -216q0 -137 71.5 -224t193.5 -87q84 0 139 46.5t65 129.5zM121 715
q0 150 58.5 287t157.5 236t236 157.5t287 58.5t287 -58.5t236 -157.5t157.5 -236t58.5 -287t-58.5 -287t-157.5 -236.5t-236 -158t-287 -58.5t-287 58.5t-236 158t-157.5 236.5t-58.5 287zM301 715q0 -127 44 -238.5t119.5 -189.5t178 -123t217.5 -45t217.5 45t178 123
t119.5 189.5t44 238.5t-44 238.5t-119.5 189.5t-178 123t-217.5 45t-217.5 -45t-178 -123t-119.5 -189.5t-44 -238.5z" />
    <glyph glyph-name="ordfeminine" unicode="&#xaa;" horiz-adv-x="739" 
d="M279 1272l22 151q167 31 262 31q51 0 98 -10t89.5 -31.5t68 -62t25.5 -95.5q0 -41 -15 -122q-6 -31 -21 -96t-26.5 -121.5t-19.5 -104.5h-164l23 102h-5q-31 -58 -91 -88t-130 -30q-47 0 -90.5 8.5t-84 27.5t-65 55.5t-24.5 86.5t19 90t52.5 65.5t73 43t88.5 26.5
t90.5 12.5t86.5 3.5h116q1 4 3 11.5t3 15t1 14.5q0 36 -41 52t-101 16q-44 0 -114.5 -14.5t-128.5 -36.5zM645 1096h-96q-36 0 -71.5 -4t-76 -14.5t-65.5 -33.5t-25 -55q0 -25 22 -40.5t44.5 -19t46.5 -3.5q83 0 146 47.5t75 122.5z" />
    <glyph glyph-name="guillemotleft" unicode="&#xab;" 
d="M801 137l-303 414l374 414h213l-385 -414l299 -414h-198zM393 137l-303 414l375 414h213l-385 -414l299 -414h-199z" />
    <glyph glyph-name="logicalnot" unicode="&#xac;" horiz-adv-x="1228" 
d="M127 643v180h1036v-604h-180v424h-856z" />
    <glyph glyph-name="uni00AD" unicode="&#xad;" horiz-adv-x="681" 
d="M72 473l32 156h539l-31 -156h-540z" />
    <glyph glyph-name="registered" unicode="&#xae;" horiz-adv-x="1638" 
d="M860 -25q-150 0 -287 58.5t-236 158t-157.5 236.5t-58.5 287t58.5 287t157.5 236t236 157.5t287 58.5t287 -58.5t236 -157.5t157.5 -236t58.5 -287t-58.5 -287t-157.5 -236.5t-236 -158t-287 -58.5zM860 119q115 0 217.5 45t178 123t119.5 189.5t44 238.5t-44 238.5
t-119.5 189.5t-178 123t-217.5 45t-217.5 -45t-178 -123t-119.5 -189.5t-44 -238.5t44 -238.5t119.5 -189.5t178 -123t217.5 -45zM575 299v838h312q155 0 232 -58.5t77 -187.5q0 -206 -219 -225l225 -367h-160l-217 360h-94v-360h-156zM731 1018v-240h137q40 0 66.5 4t53 16
t39.5 38t13 67q0 115 -170 115h-139z" />
    <glyph glyph-name="macron" unicode="&#xaf;" horiz-adv-x="569" 
d="M166 1260l24 118h551l-22 -118h-553z" />
    <glyph glyph-name="degree" unicode="&#xb0;" horiz-adv-x="819" 
d="M219 1161q0 121 85.5 207t207.5 86t207.5 -86t85.5 -207t-85.5 -207t-207.5 -86t-207.5 86t-85.5 207zM350 1161q0 -67 47 -114.5t115 -47.5t115 47.5t47 114.5t-47 114.5t-115 47.5t-115 -47.5t-47 -114.5z" />
    <glyph glyph-name="plusminus" unicode="&#xb1;" horiz-adv-x="1228" 
d="M127 555v180h428v301h180v-301h428v-180h-428v-301h-180v301h-428zM127 0v180h1036v-180h-1036z" />
    <glyph glyph-name="twosuperior" unicode="&#xb2;" horiz-adv-x="739" 
d="M59 578l29 127q17 14 91.5 70.5t139 109t136.5 117t114.5 122.5t42.5 97q0 90 -129 90q-82 0 -217 -41l13 141q122 43 237 43q74 0 134 -19.5t101.5 -68.5t41.5 -121q0 -51 -26.5 -106t-64.5 -100t-93 -95t-100 -84.5t-98 -74t-75 -58.5v-6h346l-29 -143h-594z" />
    <glyph glyph-name="threesuperior" unicode="&#xb3;" horiz-adv-x="739" 
d="M301 954l18 144h38.5t45 1.5t52.5 5t49.5 9t48.5 15.5t37.5 23.5t27.5 33t9 43.5q0 42 -41 62t-88 20q-111 0 -222 -43l13 155q8 2 39 8.5t44 9t37.5 6.5t44.5 5.5t40 1.5q57 0 107 -8.5t99 -29t78 -63.5t29 -104t-41.5 -111t-98 -77.5t-116.5 -34.5v-4q72 -16 123 -63
t51 -113q0 -67 -36 -122.5t-93 -89t-122 -51.5t-128 -18q-148 0 -264 39l33 154q75 -49 211 -49q39 0 74 6t69.5 20.5t55 43.5t20.5 71q0 30 -19.5 51t-44 31t-64.5 15.5t-61.5 6t-54.5 0.5z" />
    <glyph glyph-name="acute" unicode="&#xb4;" horiz-adv-x="569" 
d="M336 1190l192 295h230l-277 -295h-145z" />
    <glyph glyph-name="mu" unicode="&#xb5;" horiz-adv-x="1251" 
d="M1217 1044l-183 -884q-24 -128 -28 -160h-181l33 166h-4q-52 -83 -141 -137t-215 -54q-84 -3 -136 8.5t-92 39.5l-92 -453h-192l303 1474h192l-129 -624q-10 -58 -10 -98q0 -84 51.5 -137.5t138.5 -53.5q68 0 128 28t101.5 70.5t74 97t50.5 101.5t27 90l111 526h193z" />
    <glyph glyph-name="paragraph" unicode="&#xb6;" horiz-adv-x="1228" 
d="M354 -229l191 911q-178 0 -277.5 80t-97.5 213q0 94 32 171.5t86 129t128 87t155.5 51.5t169.5 16h555l-346 -1659h-182l315 1515h-235l-316 -1515h-178z" />
    <glyph glyph-name="periodcentered" unicode="&#xb7;" horiz-adv-x="569" 
d="M197 621q0 51 34.5 85.5t85.5 34.5t86 -34.5t35 -85.5t-35 -86t-86 -35t-85.5 35t-34.5 86z" />
    <glyph glyph-name="cedilla" unicode="&#xb8;" horiz-adv-x="569" 
d="M299 0h86l-111 -125l5 -4q28 8 55 8q77 0 132.5 -38.5t55.5 -116.5q0 -59 -41 -101t-95.5 -60t-111.5 -18q-107 0 -198 45l33 74q9 -3 40 -14.5t52 -17t41 -5.5q59 0 92 20t33 72q0 36 -27.5 57t-67.5 21q-41 0 -86 -20l-34 49z" />
    <glyph glyph-name="onesuperior" unicode="&#xb9;" horiz-adv-x="739" 
d="M297 578l158 708l-152 -92l-72 92l275 156h166l-201 -864h-174z" />
    <glyph glyph-name="ordmasculine" unicode="&#xba;" horiz-adv-x="813" 
d="M496 795q-152 0 -236 71.5t-84 208.5q0 165 104.5 272t294.5 107q147 0 230.5 -73t83.5 -203q0 -108 -44 -193.5t-134.5 -137.5t-214.5 -52zM709 1151q0 76 -37 124t-109 48q-97 0 -151 -67t-56 -177q0 -60 41 -106.5t107 -46.5q87 0 146 62t59 163z" />
    <glyph glyph-name="guillemotright" unicode="&#xbb;" 
d="M375 965l303 -414l-375 -414h-213l385 414l-299 414h199zM782 965l303 -414l-374 -414h-213l385 414l-299 414h198z" />
    <glyph glyph-name="onequarter" unicode="&#xbc;" horiz-adv-x="1708" 
d="M1360 313l102 432h-4l-389 -432h291zM1284 0l41 170h-469l29 143l506 551h274l-135 -551h115l-29 -143h-123l-41 -170h-168zM309 -45l889 1520h145l-890 -1520h-144zM256 578l158 708l-152 -92l-72 92l275 156h166l-201 -864h-174z" />
    <glyph glyph-name="onehalf" unicode="&#xbd;" horiz-adv-x="1708" 
d="M350 -45l889 1520h145l-890 -1520h-144zM256 578l158 708l-152 -92l-72 92l275 156h166l-201 -864h-174zM940 0l29 127q17 14 91.5 70.5t139 109t136.5 117t114.5 122.5t42.5 97q0 90 -129 90q-82 0 -217 -41l12 142q122 43 238 43t196 -51.5t80 -157.5q0 -51 -26 -106
t-64.5 -100t-93 -95t-99.5 -84t-98 -74t-75 -59v-7h346l-29 -143h-594z" />
    <glyph glyph-name="threequarters" unicode="&#xbe;" horiz-adv-x="1708" 
d="M1360 313l102 432h-4l-389 -432h291zM1284 0l41 170h-469l29 143l506 551h274l-135 -551h115l-29 -143h-123l-41 -170h-168zM391 -45l889 1520h145l-890 -1520h-144zM281 954l18 144h44.5t53 2.5t60.5 7t54.5 14t49.5 23t31.5 35.5t13.5 49q0 42 -41 62t-88 20
q-110 0 -221 -43l12 155q8 2 39 8.5t44 9t37.5 6.5t44.5 5.5t40 1.5q57 0 107 -8.5t99 -29t78 -63.5t29 -104t-41.5 -111t-98 -77.5t-116.5 -34.5v-4q72 -16 123.5 -63t51.5 -113q0 -67 -36 -122.5t-93 -89t-122 -51.5t-128 -18q-149 0 -265 39l33 154q75 -49 211 -49
q39 0 74 6t69.5 20.5t55 43.5t20.5 71q0 30 -19.5 51t-44 31t-64 15.5t-61 6t-54.5 0.5z" />
    <glyph glyph-name="questiondown" unicode="&#xbf;" horiz-adv-x="1024" 
d="M713 -170l-23 -190q-179 -50 -321 -50q-65 0 -122 9.5t-111.5 34t-93 61.5t-62 95.5t-23.5 133.5q0 44 7.5 83t25.5 73.5t34 59.5t48.5 56.5t51.5 48.5t61.5 51.5t60.5 49.5q59 50 93.5 85.5t53.5 72.5t25.5 61.5t15.5 77.5h193q-17 -72 -26 -106.5t-25.5 -79t-31 -67
t-44 -55.5t-63.5 -61t-89 -69q-82 -61 -128 -121.5t-46 -140.5q0 -172 248 -172q112 0 291 59zM723 1044l-47 -229h-230l48 229h229z" />
    <glyph glyph-name="Agrave" unicode="&#xc0;" horiz-adv-x="1478" 
d="M1065 528l-135 680l-432 -680h567zM-63 0l927 1430h203l315 -1430h-211l-75 360h-703l-229 -360h-227zM913 1815l138 -295h-138l-206 295h206z" />
    <glyph glyph-name="Aacute" unicode="&#xc1;" horiz-adv-x="1478" 
d="M1065 528l-135 680l-432 -680h567zM-63 0l927 1430h203l315 -1430h-211l-75 360h-703l-229 -360h-227zM903 1520l193 295h229l-276 -295h-146z" />
    <glyph glyph-name="Acircumflex" unicode="&#xc2;" horiz-adv-x="1478" 
d="M1065 528l-135 680l-432 -680h567zM-63 0l927 1430h203l315 -1430h-211l-75 360h-703l-229 -360h-227zM686 1520l272 295h177l153 -295h-151l-105 200l-178 -200h-168z" />
    <glyph glyph-name="Atilde" unicode="&#xc3;" horiz-adv-x="1478" 
d="M1065 528l-135 680l-432 -680h567zM-63 0l927 1430h203l315 -1430h-211l-75 360h-703l-229 -360h-227zM766 1530h-94q5 39 16 74t32 72.5t58 60t86 22.5q55 0 165 -47.5t151 -46.5q42 -3 65.5 25t28.5 69h94q-5 -39 -16 -74t-32 -72.5t-58 -60t-86 -22.5q-55 0 -165 47.5
t-151 46.5q-42 3 -65.5 -25t-28.5 -69z" />
    <glyph glyph-name="Adieresis" unicode="&#xc4;" horiz-adv-x="1478" 
d="M1065 528l-135 680l-432 -680h567zM-63 0l927 1430h203l315 -1430h-211l-75 360h-703l-229 -360h-227zM1257 1534h-180l43 205h180zM920 1534h-181l43 205h181z" />
    <glyph glyph-name="Aring" unicode="&#xc5;" horiz-adv-x="1478" 
d="M1065 528l-135 680l-432 -680h567zM-63 0l927 1430h203l315 -1430h-211l-75 360h-703l-229 -360h-227zM1186 1696q0 -86 -60.5 -147.5t-146.5 -61.5t-145.5 61t-59.5 148q0 88 59.5 148.5t145.5 60.5t146.5 -60.5t60.5 -148.5zM1104 1696q0 51 -37.5 89t-87.5 38
t-86.5 -37t-36.5 -90q0 -52 36.5 -89.5t86.5 -37.5q49 0 87 38.5t38 88.5z" />
    <glyph glyph-name="AE" unicode="&#xc6;" horiz-adv-x="1933" 
d="M-74 0l1149 1430h895l-31 -181h-540l-80 -418h493l-34 -180h-494l-90 -471h541l-33 -180h-752l70 360h-553l-289 -360h-252zM1053 528l143 734h-4l-590 -734h451z" />
    <glyph glyph-name="Ccedilla" unicode="&#xc7;" horiz-adv-x="1251" 
d="M1350 1389l-60 -177q-144 62 -276 62q-127 0 -233.5 -36t-181.5 -98t-127.5 -146t-77.5 -179t-25 -197q0 -226 134 -344t353 -118q137 0 256 49l-27 -191q-121 -39 -262 -39q-57 0 -112 9l-95 -109l5 -4q28 8 55 8q77 0 132.5 -38.5t55.5 -116.5q0 -59 -41 -101
t-95.5 -60t-111.5 -18q-107 0 -198 45l33 74q9 -3 40 -14.5t52 -17t41 -5.5q59 0 92 20t33 72q0 36 -27.5 57t-67.5 21q-41 0 -86 -20l-34 49l143 170q-225 45 -355 203.5t-130 429.5q0 109 29 220.5t96 221t164 194t244.5 137t324.5 52.5q180 0 340 -65z" />
    <glyph glyph-name="Egrave" unicode="&#xc8;" 
d="M86 0l313 1430h777l-41 -181h-566l-92 -418h531l-35 -180h-537l-104 -471h600l-39 -180h-807zM766 1825l137 -295h-137l-207 295h207z" />
    <glyph glyph-name="Eacute" unicode="&#xc9;" 
d="M86 0l313 1430h777l-41 -181h-566l-92 -418h531l-35 -180h-537l-104 -471h600l-39 -180h-807zM682 1530l192 295h230l-277 -295h-145z" />
    <glyph glyph-name="Ecircumflex" unicode="&#xca;" 
d="M86 0l313 1430h777l-41 -181h-566l-92 -418h531l-35 -180h-537l-104 -471h600l-39 -180h-807zM465 1530l272 295h176l154 -295h-152l-104 201l-178 -201h-168z" />
    <glyph glyph-name="Edieresis" unicode="&#xcb;" 
d="M86 0l313 1430h777l-41 -181h-566l-92 -418h531l-35 -180h-537l-104 -471h600l-39 -180h-807zM1036 1544h-180l43 205h180zM698 1544h-180l43 205h180z" />
    <glyph glyph-name="Igrave" unicode="&#xcc;" horiz-adv-x="569" 
d="M78 0l307 1430h207l-307 -1430h-207zM481 1825l137 -295h-137l-207 295h207z" />
    <glyph glyph-name="Iacute" unicode="&#xcd;" horiz-adv-x="569" 
d="M78 0l307 1430h207l-307 -1430h-207zM397 1530l193 295h229l-276 -295h-146z" />
    <glyph glyph-name="Icircumflex" unicode="&#xce;" horiz-adv-x="569" 
d="M78 0l307 1430h207l-307 -1430h-207zM180 1530l273 295h176l153 -295h-151l-105 201l-178 -201h-168z" />
    <glyph glyph-name="Idieresis" unicode="&#xcf;" horiz-adv-x="569" 
d="M78 0l307 1430h207l-307 -1430h-207zM752 1544h-181l43 205h181zM414 1544h-181l43 205h181z" />
    <glyph glyph-name="Eth" unicode="&#xd0;" horiz-adv-x="1478" 
d="M86 0l150 700h-154l29 131h151l127 599h316q184 0 324 -44.5t225 -124t127 -182.5t42 -227q0 -191 -59 -347.5t-171.5 -269t-286.5 -174t-394 -61.5h-426zM559 1249l-88 -418h369l-29 -131h-369l-110 -520h217q302 0 479.5 178t177.5 471q0 77 -14.5 138.5t-51.5 115.5
t-96 89.5t-151.5 56t-214.5 20.5h-119z" />
    <glyph glyph-name="Ntilde" unicode="&#xd1;" horiz-adv-x="1478" 
d="M86 0l297 1430h270l404 -1199h4l254 1199h194l-311 -1430h-264l-404 1188h-4l-243 -1188h-197zM709 1530h-95q5 39 16 74t32 72.5t58.5 60t86.5 22.5q55 0 164.5 -47.5t150.5 -46.5q42 -3 66 25t29 69h94q-5 -39 -16 -74t-32 -72.5t-58.5 -60t-86.5 -22.5
q-55 0 -164.5 47.5t-150.5 46.5q-42 3 -65.5 -25t-28.5 -69z" />
    <glyph glyph-name="Ograve" unicode="&#xd2;" horiz-adv-x="1593" 
d="M152 582q0 102 23.5 205.5t68.5 201t115 182t157 147.5t201 99.5t241 36.5q274 0 427 -153t153 -427q0 -137 -31.5 -267t-96.5 -245t-157 -201t-221 -136t-280 -50q-294 0 -447 155t-153 452zM369 575q0 -195 100.5 -307t290.5 -112q102 0 193 42t157 111.5t114.5 159
t72.5 186.5t24 191q0 208 -93 318t-276 110q-169 0 -304.5 -99t-207 -258t-71.5 -342zM1004 1833l137 -295h-137l-207 295h207z" />
    <glyph glyph-name="Oacute" unicode="&#xd3;" horiz-adv-x="1593" 
d="M152 582q0 102 23.5 205.5t68.5 201t115 182t157 147.5t201 99.5t241 36.5q274 0 427 -153t153 -427q0 -137 -31.5 -267t-96.5 -245t-157 -201t-221 -136t-280 -50q-294 0 -447 155t-153 452zM369 575q0 -195 100.5 -307t290.5 -112q102 0 193 42t157 111.5t114.5 159
t72.5 186.5t24 191q0 208 -93 318t-276 110q-169 0 -304.5 -99t-207 -258t-71.5 -342zM920 1538l192 295h229l-276 -295h-145z" />
    <glyph glyph-name="Ocircumflex" unicode="&#xd4;" horiz-adv-x="1593" 
d="M152 582q0 102 23.5 205.5t68.5 201t115 182t157 147.5t201 99.5t241 36.5q274 0 427 -153t153 -427q0 -137 -31.5 -267t-96.5 -245t-157 -201t-221 -136t-280 -50q-294 0 -447 155t-153 452zM369 575q0 -195 100.5 -307t290.5 -112q102 0 193 42t157 111.5t114.5 159
t72.5 186.5t24 191q0 208 -93 318t-276 110q-169 0 -304.5 -99t-207 -258t-71.5 -342zM702 1538l273 295h176l154 -295h-152l-104 201l-179 -201h-168z" />
    <glyph glyph-name="Otilde" unicode="&#xd5;" horiz-adv-x="1593" 
d="M152 582q0 102 23.5 205.5t68.5 201t115 182t157 147.5t201 99.5t241 36.5q274 0 427 -153t153 -427q0 -137 -31.5 -267t-96.5 -245t-157 -201t-221 -136t-280 -50q-294 0 -447 155t-153 452zM369 575q0 -195 100.5 -307t290.5 -112q102 0 193 42t157 111.5t114.5 159
t72.5 186.5t24 191q0 208 -93 318t-276 110q-169 0 -304.5 -99t-207 -258t-71.5 -342zM782 1548h-94q4 30 11 58t22 60.5t35 56t52.5 39.5t72.5 16q55 0 164.5 -48t150.5 -47q42 -3 65.5 25.5t28.5 69.5h94q-4 -30 -11 -58t-22 -60.5t-35 -56t-52 -39.5t-72 -16
q-55 0 -164.5 47.5t-150.5 46.5q-42 3 -66 -25t-29 -69z" />
    <glyph glyph-name="Odieresis" unicode="&#xd6;" horiz-adv-x="1593" 
d="M152 582q0 102 23.5 205.5t68.5 201t115 182t157 147.5t201 99.5t241 36.5q274 0 427 -153t153 -427q0 -137 -31.5 -267t-96.5 -245t-157 -201t-221 -136t-280 -50q-294 0 -447 155t-153 452zM369 575q0 -195 100.5 -307t290.5 -112q102 0 193 42t157 111.5t114.5 159
t72.5 186.5t24 191q0 208 -93 318t-276 110q-169 0 -304.5 -99t-207 -258t-71.5 -342zM1274 1552h-180l43 205h180zM936 1552h-180l43 205h180z" />
    <glyph glyph-name="multiply" unicode="&#xd7;" horiz-adv-x="1228" 
d="M518 518l-348 348l127 127l348 -350l348 350l127 -127l-350 -348l350 -348l-127 -127l-348 350l-348 -350l-127 127z" />
    <glyph glyph-name="Oslash" unicode="&#xd8;" horiz-adv-x="1593" 
d="M453 291l692 938q-77 45 -193 45q-169 0 -304.5 -99t-207 -258t-71.5 -342q0 -177 84 -284zM1239 1147l-692 -940q82 -51 213 -51q102 0 193 42t157 111.5t114.5 159t72.5 186.5t24 191q0 194 -82 301zM166 -98l158 213q-172 149 -172 467q0 102 23.5 205.5t68.5 201
t115 182t157 147.5t201 99.5t241 36.5q180 0 304 -68l141 191l102 -72l-139 -188q172 -149 172 -443q0 -137 -31.5 -267t-96.5 -245t-157 -201t-221 -136t-280 -50q-193 0 -326 68l-158 -213z" />
    <glyph glyph-name="Ugrave" unicode="&#xd9;" horiz-adv-x="1478" 
d="M1507 1430l-184 -840q-71 -321 -224 -468t-403 -147q-82 0 -152.5 16t-121 43t-91 63.5t-66 75.5t-42 82t-23.5 80.5t-7 72.5q0 28 3 60t9.5 71t11 63t14 69t11.5 56l151 703h205l-184 -863q-17 -87 -17 -127q0 -135 87 -209.5t225 -74.5q63 0 117 18.5t93 47.5
t72.5 75.5t55.5 90t42 104.5t31.5 106t24.5 107l158 725h204zM946 1815l137 -295h-137l-207 295h207z" />
    <glyph glyph-name="Uacute" unicode="&#xda;" horiz-adv-x="1478" 
d="M1507 1430l-184 -840q-71 -321 -224 -468t-403 -147q-82 0 -152.5 16t-121 43t-91 63.5t-66 75.5t-42 82t-23.5 80.5t-7 72.5q0 28 3 60t9.5 71t11 63t14 69t11.5 56l151 703h205l-184 -863q-17 -87 -17 -127q0 -135 87 -209.5t225 -74.5q63 0 117 18.5t93 47.5
t72.5 75.5t55.5 90t42 104.5t31.5 106t24.5 107l158 725h204zM862 1520l193 295h229l-276 -295h-146z" />
    <glyph glyph-name="Ucircumflex" unicode="&#xdb;" horiz-adv-x="1478" 
d="M1507 1430l-184 -840q-71 -321 -224 -468t-403 -147q-82 0 -152.5 16t-121 43t-91 63.5t-66 75.5t-42 82t-23.5 80.5t-7 72.5q0 28 3 60t9.5 71t11 63t14 69t11.5 56l151 703h205l-184 -863q-17 -87 -17 -127q0 -135 87 -209.5t225 -74.5q63 0 117 18.5t93 47.5
t72.5 75.5t55.5 90t42 104.5t31.5 106t24.5 107l158 725h204zM645 1520l273 295h176l153 -295h-151l-105 200l-178 -200h-168z" />
    <glyph glyph-name="Udieresis" unicode="&#xdc;" horiz-adv-x="1478" 
d="M1507 1430l-184 -840q-71 -321 -224 -468t-403 -147q-82 0 -152.5 16t-121 43t-91 63.5t-66 75.5t-42 82t-23.5 80.5t-7 72.5q0 28 3 60t9.5 71t11 63t14 69t11.5 56l151 703h205l-184 -863q-17 -87 -17 -127q0 -135 87 -209.5t225 -74.5q63 0 117 18.5t93 47.5
t72.5 75.5t55.5 90t42 104.5t31.5 106t24.5 107l158 725h204zM1217 1534h-181l43 205h181zM879 1534h-181l43 205h181z" />
    <glyph glyph-name="Yacute" unicode="&#xdd;" horiz-adv-x="1366" 
d="M477 0l123 598l-383 832h225l285 -648l563 648h260l-749 -832l-123 -598h-201zM735 1575l193 295h229l-276 -295h-146z" />
    <glyph glyph-name="Thorn" unicode="&#xde;" 
d="M510 1040l-109 -497h109q69 0 126 6t115.5 24t98.5 47.5t65 79.5t25 117q0 58 -18 99.5t-46 65t-72.5 37t-87 17.5t-100.5 4h-106zM78 0l311 1430h205l-45 -209h153q86 0 162.5 -19t145.5 -60t110 -116.5t41 -177.5q0 -218 -155 -352t-437 -134h-207l-79 -362h-205z" />
    <glyph glyph-name="germandbls" unicode="&#xdf;" horiz-adv-x="1251" 
d="M72 0l213 1010q38 181 74 268q108 252 365 279q33 4 69 4q58 0 111 -9.5t108 -36t95 -67t65.5 -108t25.5 -154.5q0 -137 -90.5 -245t-226.5 -130v-4q125 -15 192.5 -99t67.5 -212q0 -181 -103.5 -318t-281.5 -176q-65 -14 -140 -14q-91 0 -204 20l34 158q82 -23 177 -23
q138 0 225.5 103.5t87.5 247.5q0 71 -21.5 119t-64.5 73t-95.5 35t-127.5 10l32 156q91 0 169 33t128 102t50 162q0 102 -60.5 161.5t-157.5 59.5q-52 0 -95.5 -17t-74.5 -51t-53.5 -70t-40.5 -88.5t-28 -91t-21 -92.5l-211 -995h-192z" />
    <glyph glyph-name="agrave" unicode="&#xe0;" 
d="M262 825l35 191q69 23 151.5 38t139.5 15q83 0 154 -17.5t131 -54.5t94 -103.5t34 -156.5q0 -76 -18 -164q-9 -45 -29 -142t-31 -152.5t-25.5 -134.5t-23.5 -144h-178l35 174h-4q-49 -92 -141.5 -145.5t-198.5 -53.5q-142 0 -238 74.5t-96 214.5q0 87 31.5 153.5
t85.5 109t133.5 69.5t169 38t199.5 11q18 0 41 -1t52.5 -2.5t45.5 -2.5q10 50 10 68q0 206 -239 206q-82 0 -167.5 -24t-152.5 -64zM770 502h-147q-48 0 -94 -5.5t-96.5 -21t-88 -40t-62 -67t-24.5 -96.5q0 -66 49.5 -103.5t122.5 -37.5q93 0 168.5 57t117.5 139.5t54 174.5
zM705 1485l137 -295h-137l-207 295h207z" />
    <glyph glyph-name="aacute" unicode="&#xe1;" 
d="M262 825l35 191q69 23 151.5 38t139.5 15q83 0 154 -17.5t131 -54.5t94 -103.5t34 -156.5q0 -76 -18 -164q-9 -45 -29 -142t-31 -152.5t-25.5 -134.5t-23.5 -144h-178l35 174h-4q-49 -92 -141.5 -145.5t-198.5 -53.5q-142 0 -238 74.5t-96 214.5q0 87 31.5 153.5
t85.5 109t133.5 69.5t169 38t199.5 11q18 0 41 -1t52.5 -2.5t45.5 -2.5q10 50 10 68q0 206 -239 206q-82 0 -167.5 -24t-152.5 -64zM770 502h-147q-48 0 -94 -5.5t-96.5 -21t-88 -40t-62 -67t-24.5 -96.5q0 -66 49.5 -103.5t122.5 -37.5q93 0 168.5 57t117.5 139.5t54 174.5
zM621 1190l192 295h229l-276 -295h-145z" />
    <glyph glyph-name="acircumflex" unicode="&#xe2;" 
d="M262 825l35 191q69 23 151.5 38t139.5 15q83 0 154 -17.5t131 -54.5t94 -103.5t34 -156.5q0 -76 -18 -164q-9 -45 -29 -142t-31 -152.5t-25.5 -134.5t-23.5 -144h-178l35 174h-4q-49 -92 -141.5 -145.5t-198.5 -53.5q-142 0 -238 74.5t-96 214.5q0 87 31.5 153.5
t85.5 109t133.5 69.5t169 38t199.5 11q18 0 41 -1t52.5 -2.5t45.5 -2.5q10 50 10 68q0 206 -239 206q-82 0 -167.5 -24t-152.5 -64zM770 502h-147q-48 0 -94 -5.5t-96.5 -21t-88 -40t-62 -67t-24.5 -96.5q0 -66 49.5 -103.5t122.5 -37.5q93 0 168.5 57t117.5 139.5t54 174.5
zM403 1190l273 295h176l154 -295h-152l-104 201l-179 -201h-168z" />
    <glyph glyph-name="atilde" unicode="&#xe3;" 
d="M262 825l35 191q69 23 151.5 38t139.5 15q83 0 154 -17.5t131 -54.5t94 -103.5t34 -156.5q0 -76 -18 -164q-9 -45 -29 -142t-31 -152.5t-25.5 -134.5t-23.5 -144h-178l35 174h-4q-49 -92 -141.5 -145.5t-198.5 -53.5q-142 0 -238 74.5t-96 214.5q0 87 31.5 153.5
t85.5 109t133.5 69.5t169 38t199.5 11q18 0 41 -1t52.5 -2.5t45.5 -2.5q10 50 10 68q0 206 -239 206q-82 0 -167.5 -24t-152.5 -64zM770 502h-147q-48 0 -94 -5.5t-96.5 -21t-88 -40t-62 -67t-24.5 -96.5q0 -66 49.5 -103.5t122.5 -37.5q93 0 168.5 57t117.5 139.5t54 174.5
zM483 1200h-94q4 30 11 58t22 60.5t35 56t52.5 39.5t72.5 16q55 0 164.5 -48t150.5 -47q42 -3 65.5 25.5t28.5 69.5h94q-4 -30 -11 -58t-22 -60.5t-35 -56t-52 -39.5t-72 -16q-55 0 -164.5 47.5t-150.5 46.5q-42 3 -66 -25t-29 -69z" />
    <glyph glyph-name="adieresis" unicode="&#xe4;" 
d="M262 825l35 191q69 23 151.5 38t139.5 15q83 0 154 -17.5t131 -54.5t94 -103.5t34 -156.5q0 -76 -18 -164q-9 -45 -29 -142t-31 -152.5t-25.5 -134.5t-23.5 -144h-178l35 174h-4q-49 -92 -141.5 -145.5t-198.5 -53.5q-142 0 -238 74.5t-96 214.5q0 87 31.5 153.5
t85.5 109t133.5 69.5t169 38t199.5 11q18 0 41 -1t52.5 -2.5t45.5 -2.5q10 50 10 68q0 206 -239 206q-82 0 -167.5 -24t-152.5 -64zM770 502h-147q-48 0 -94 -5.5t-96.5 -21t-88 -40t-62 -67t-24.5 -96.5q0 -66 49.5 -103.5t122.5 -37.5q93 0 168.5 57t117.5 139.5t54 174.5
zM975 1204h-180l43 205h180zM637 1204h-180l43 205h180z" />
    <glyph glyph-name="aring" unicode="&#xe5;" 
d="M262 825l35 191q69 23 151.5 38t139.5 15q83 0 154 -17.5t131 -54.5t94 -103.5t34 -156.5q0 -76 -18 -164q-9 -45 -29 -142t-31 -152.5t-25.5 -134.5t-23.5 -144h-178l35 174h-4q-49 -92 -141.5 -145.5t-198.5 -53.5q-142 0 -238 74.5t-96 214.5q0 87 31.5 153.5
t85.5 109t133.5 69.5t169 38t199.5 11q18 0 41 -1t52.5 -2.5t45.5 -2.5q10 50 10 68q0 206 -239 206q-82 0 -167.5 -24t-152.5 -64zM770 502h-147q-48 0 -94 -5.5t-96.5 -21t-88 -40t-62 -67t-24.5 -96.5q0 -66 49.5 -103.5t122.5 -37.5q93 0 168.5 57t117.5 139.5t54 174.5
zM913 1311q0 -87 -60 -148t-146 -61t-145.5 61t-59.5 148q0 88 59.5 148.5t145.5 60.5t146 -60.5t60 -148.5zM831 1311q0 51 -37 89t-87 38t-86.5 -37t-36.5 -90q0 -52 36.5 -89.5t86.5 -37.5q49 0 86.5 38.5t37.5 88.5z" />
    <glyph glyph-name="ae" unicode="&#xe6;" horiz-adv-x="1820" 
d="M264 831l37 187q165 51 315 51q297 0 373 -180q129 180 385 180q188 0 290.5 -106t102.5 -293q0 -81 -18 -191h-719q-6 -27 -6 -76q1 -85 47 -148t118.5 -93.5t160.5 -30.5q130 0 274 62l-27 -173q-48 -18 -121 -31.5t-133 -13.5q-194 0 -296.5 49.5t-178.5 182.5
q-62 -107 -182.5 -169.5t-253.5 -62.5q-173 0 -276 73t-103 216q0 87 31.5 153.5t85.5 109t133.5 69.5t169 38t199.5 11q58 0 176 -8q8 31 8 70q0 99 -68 152.5t-184 53.5q-155 0 -340 -82zM815 502h-192q-48 0 -94 -5.5t-96.5 -21t-88 -40t-62 -67t-24.5 -96.5
q0 -67 53 -104t140 -37q80 0 145 31t107.5 85t69.5 117t42 138zM1034 623h535q6 47 6 79q0 95 -57.5 153t-163.5 58q-114 0 -201 -84t-119 -206z" />
    <glyph glyph-name="ccedilla" unicode="&#xe7;" horiz-adv-x="909" 
d="M936 1028l-47 -166q-94 51 -187 51q-180 0 -290.5 -138t-110.5 -335q0 -147 73 -228t210 -81q96 0 211 47l-35 -178q-88 -25 -201 -25q-18 0 -24 2l-91 -102l5 -4q28 8 55 8q77 0 132.5 -38.5t55.5 -116.5q0 -59 -41 -101t-95.5 -60t-111.5 -18q-107 0 -198 45l33 74
q9 -3 40 -14.5t52 -17t41 -5.5q59 0 92 20t33 72q0 36 -27.5 57t-67.5 21q-41 0 -86 -20l-34 49l133 158q-168 25 -263.5 134.5t-95.5 293.5q0 133 39 252t110 209t180 143t241 53q152 0 270 -41z" />
    <glyph glyph-name="egrave" unicode="&#xe8;" 
d="M328 623h534q6 46 6 79q0 95 -57.5 153t-163.5 58q-113 0 -199.5 -84t-119.5 -206zM918 195l-31 -177q-172 -43 -309 -43q-80 0 -148 13t-131 46.5t-107 86t-70 135.5t-26 190q0 110 38.5 219.5t108.5 200t181 147t244 56.5q188 0 290.5 -106t102.5 -293q0 -75 -19 -191
h-735q-6 -35 -6 -65q0 -154 85 -218.5t237 -64.5q141 0 295 64zM705 1485l137 -295h-137l-207 295h207z" />
    <glyph glyph-name="eacute" unicode="&#xe9;" 
d="M328 623h534q6 46 6 79q0 95 -57.5 153t-163.5 58q-113 0 -199.5 -84t-119.5 -206zM918 195l-31 -177q-172 -43 -309 -43q-80 0 -148 13t-131 46.5t-107 86t-70 135.5t-26 190q0 110 38.5 219.5t108.5 200t181 147t244 56.5q188 0 290.5 -106t102.5 -293q0 -75 -19 -191
h-735q-6 -35 -6 -65q0 -154 85 -218.5t237 -64.5q141 0 295 64zM621 1190l192 295h229l-276 -295h-145z" />
    <glyph glyph-name="ecircumflex" unicode="&#xea;" 
d="M328 623h534q6 46 6 79q0 95 -57.5 153t-163.5 58q-113 0 -199.5 -84t-119.5 -206zM918 195l-31 -177q-172 -43 -309 -43q-80 0 -148 13t-131 46.5t-107 86t-70 135.5t-26 190q0 110 38.5 219.5t108.5 200t181 147t244 56.5q188 0 290.5 -106t102.5 -293q0 -75 -19 -191
h-735q-6 -35 -6 -65q0 -154 85 -218.5t237 -64.5q141 0 295 64zM403 1190l273 295h176l154 -295h-152l-104 201l-179 -201h-168z" />
    <glyph glyph-name="edieresis" unicode="&#xeb;" 
d="M328 623h534q6 46 6 79q0 95 -57.5 153t-163.5 58q-113 0 -199.5 -84t-119.5 -206zM918 195l-31 -177q-172 -43 -309 -43q-80 0 -148 13t-131 46.5t-107 86t-70 135.5t-26 190q0 110 38.5 219.5t108.5 200t181 147t244 56.5q188 0 290.5 -106t102.5 -293q0 -75 -19 -191
h-735q-6 -35 -6 -65q0 -154 85 -218.5t237 -64.5q141 0 295 64zM975 1204h-180l43 205h180zM637 1204h-180l43 205h180z" />
    <glyph glyph-name="igrave" unicode="&#xec;" horiz-adv-x="569" 
d="M84 0l221 1044h193l-222 -1044h-192zM420 1485l137 -295h-137l-207 295h207z" />
    <glyph glyph-name="iacute" unicode="&#xed;" horiz-adv-x="569" 
d="M84 0l221 1044h193l-222 -1044h-192zM336 1190l192 295h230l-277 -295h-145z" />
    <glyph glyph-name="icircumflex" unicode="&#xee;" horiz-adv-x="569" 
d="M84 0l221 1044h193l-222 -1044h-192zM119 1190l272 295h176l154 -295h-152l-104 201l-178 -201h-168z" />
    <glyph glyph-name="idieresis" unicode="&#xef;" horiz-adv-x="569" 
d="M84 0l221 1044h193l-222 -1044h-192zM690 1204h-180l43 205h180zM352 1204h-180l43 205h180z" />
    <glyph glyph-name="eth" unicode="&#xf0;" horiz-adv-x="1251" 
d="M301 426q0 -131 68.5 -213t199.5 -82q105 0 194 71t138 181.5t49 228.5q0 125 -71 213t-195 88q-74 0 -138 -30t-108 -79t-75.5 -112.5t-46.5 -131.5t-15 -134zM352 1245l236 111q-54 39 -154 96l148 109q99 -58 184 -123l266 123l88 -105l-248 -115q283 -283 283 -729
q0 -106 -24.5 -202t-73.5 -175.5t-118 -137.5t-163.5 -90t-204.5 -32q-221 0 -348 119t-127 346q0 176 68 317t205 226.5t323 85.5q109 0 185 -45h4q-69 132 -181 238l-260 -121z" />
    <glyph glyph-name="ntilde" unicode="&#xf1;" horiz-adv-x="1251" 
d="M72 0l182 885q28 148 29 159h180l-33 -165h4q52 83 141 136.5t216 53.5q158 0 253 -83.5t95 -244.5q0 -67 -25 -190l-115 -551h-192l129 625q10 58 10 98q0 84 -51.5 137t-138.5 53q-68 0 -128 -28t-101.5 -70.5t-74 -97t-50.5 -101.5t-27 -90l-111 -526h-192zM541 1200
h-95q4 30 11 58t22 60.5t35 56t52.5 39.5t72.5 16q55 0 164.5 -48t150.5 -47q42 -3 66 25.5t29 69.5h94q-4 -30 -11 -58t-22 -60.5t-35 -56t-52.5 -39.5t-72.5 -16q-55 0 -164.5 47.5t-150.5 46.5q-42 3 -65.5 -25t-28.5 -69z" />
    <glyph glyph-name="ograve" unicode="&#xf2;" horiz-adv-x="1251" 
d="M96 440q0 176 68 317t205 226.5t323 85.5q213 0 338 -121.5t125 -335.5q0 -106 -24.5 -202t-73.5 -175.5t-118 -137.5t-163.5 -90t-204.5 -32q-221 0 -348 119t-127 346zM301 426q0 -131 68.5 -213t199.5 -82q105 0 194 71t138 181.5t49 228.5q0 125 -71 213t-195 88
q-74 0 -138 -30t-108 -79t-75.5 -112.5t-46.5 -131.5t-15 -134zM762 1485l137 -295h-137l-207 295h207z" />
    <glyph glyph-name="oacute" unicode="&#xf3;" horiz-adv-x="1251" 
d="M96 440q0 176 68 317t205 226.5t323 85.5q213 0 338 -121.5t125 -335.5q0 -106 -24.5 -202t-73.5 -175.5t-118 -137.5t-163.5 -90t-204.5 -32q-221 0 -348 119t-127 346zM301 426q0 -131 68.5 -213t199.5 -82q105 0 194 71t138 181.5t49 228.5q0 125 -71 213t-195 88
q-74 0 -138 -30t-108 -79t-75.5 -112.5t-46.5 -131.5t-15 -134zM678 1190l192 295h230l-277 -295h-145z" />
    <glyph glyph-name="ocircumflex" unicode="&#xf4;" horiz-adv-x="1251" 
d="M96 440q0 176 68 317t205 226.5t323 85.5q213 0 338 -121.5t125 -335.5q0 -106 -24.5 -202t-73.5 -175.5t-118 -137.5t-163.5 -90t-204.5 -32q-221 0 -348 119t-127 346zM301 426q0 -131 68.5 -213t199.5 -82q105 0 194 71t138 181.5t49 228.5q0 125 -71 213t-195 88
q-74 0 -138 -30t-108 -79t-75.5 -112.5t-46.5 -131.5t-15 -134zM461 1190l272 295h176l154 -295h-152l-104 201l-178 -201h-168z" />
    <glyph glyph-name="otilde" unicode="&#xf5;" horiz-adv-x="1251" 
d="M96 440q0 176 68 317t205 226.5t323 85.5q213 0 338 -121.5t125 -335.5q0 -106 -24.5 -202t-73.5 -175.5t-118 -137.5t-163.5 -90t-204.5 -32q-221 0 -348 119t-127 346zM301 426q0 -131 68.5 -213t199.5 -82q105 0 194 71t138 181.5t49 228.5q0 125 -71 213t-195 88
q-74 0 -138 -30t-108 -79t-75.5 -112.5t-46.5 -131.5t-15 -134zM541 1200h-95q4 30 11 58t22 60.5t35 56t52.5 39.5t72.5 16q55 0 164.5 -48t150.5 -47q42 -3 66 25.5t29 69.5h94q-4 -30 -11 -58t-22 -60.5t-35 -56t-52.5 -39.5t-72.5 -16q-55 0 -164.5 47.5t-150.5 46.5
q-42 3 -65.5 -25t-28.5 -69z" />
    <glyph glyph-name="odieresis" unicode="&#xf6;" horiz-adv-x="1251" 
d="M96 440q0 176 68 317t205 226.5t323 85.5q213 0 338 -121.5t125 -335.5q0 -106 -24.5 -202t-73.5 -175.5t-118 -137.5t-163.5 -90t-204.5 -32q-221 0 -348 119t-127 346zM301 426q0 -131 68.5 -213t199.5 -82q105 0 194 71t138 181.5t49 228.5q0 125 -71 213t-195 88
q-74 0 -138 -30t-108 -79t-75.5 -112.5t-46.5 -131.5t-15 -134zM1032 1204h-180l43 205h180zM694 1204h-180l43 205h180z" />
    <glyph glyph-name="divide" unicode="&#xf7;" horiz-adv-x="1228" 
d="M127 428v180h1036v-180h-1036zM489 942q0 64 46.5 111t111.5 47q62 0 109 -47.5t47 -110.5q0 -59 -47.5 -107.5t-106.5 -48.5q-66 0 -113 46.5t-47 109.5zM489 94q0 64 46.5 110t111.5 46q62 0 109 -46.5t47 -109.5q0 -59 -47.5 -108t-106.5 -49q-66 0 -113 47t-47 110z
" />
    <glyph glyph-name="oslash" unicode="&#xf8;" horiz-adv-x="1251" 
d="M342 252l467 631q-55 30 -125 30q-74 0 -138 -30t-108 -79t-75.5 -112.5t-46.5 -131.5t-15 -134q0 -103 41 -174zM893 805l-471 -635q61 -39 147 -39q105 0 194 71t138 181.5t49 228.5q0 116 -57 193zM96 -80l129 174q-129 120 -129 346q0 176 68 317t205 226.5t323 85.5
q129 0 221 -47l125 170l92 -68l-120 -161q145 -120 145 -351q0 -106 -24.5 -202t-73.5 -175.5t-118 -137.5t-163.5 -90t-204.5 -32q-146 0 -252 56l-131 -178z" />
    <glyph glyph-name="ugrave" unicode="&#xf9;" horiz-adv-x="1251" 
d="M1196 1044l-182 -884q-27 -146 -29 -160h-180l33 166h-4q-52 -83 -141.5 -137t-215.5 -54q-158 0 -253 83.5t-95 244.5q0 68 25 191l114 550h193l-129 -624q-10 -58 -10 -98q0 -84 51.5 -137.5t138.5 -53.5q68 0 128 28t101.5 70.5t74 97t50.5 101.5t27 90l111 526h192z
M762 1485l137 -295h-137l-207 295h207z" />
    <glyph glyph-name="uacute" unicode="&#xfa;" horiz-adv-x="1251" 
d="M1196 1044l-182 -884q-27 -146 -29 -160h-180l33 166h-4q-52 -83 -141.5 -137t-215.5 -54q-158 0 -253 83.5t-95 244.5q0 68 25 191l114 550h193l-129 -624q-10 -58 -10 -98q0 -84 51.5 -137.5t138.5 -53.5q68 0 128 28t101.5 70.5t74 97t50.5 101.5t27 90l111 526h192z
M678 1190l192 295h230l-277 -295h-145z" />
    <glyph glyph-name="ucircumflex" unicode="&#xfb;" horiz-adv-x="1251" 
d="M1196 1044l-182 -884q-27 -146 -29 -160h-180l33 166h-4q-52 -83 -141.5 -137t-215.5 -54q-158 0 -253 83.5t-95 244.5q0 68 25 191l114 550h193l-129 -624q-10 -58 -10 -98q0 -84 51.5 -137.5t138.5 -53.5q68 0 128 28t101.5 70.5t74 97t50.5 101.5t27 90l111 526h192z
M461 1190l272 295h176l154 -295h-152l-104 201l-178 -201h-168z" />
    <glyph glyph-name="udieresis" unicode="&#xfc;" horiz-adv-x="1251" 
d="M1196 1044l-182 -884q-27 -146 -29 -160h-180l33 166h-4q-52 -83 -141.5 -137t-215.5 -54q-158 0 -253 83.5t-95 244.5q0 68 25 191l114 550h193l-129 -624q-10 -58 -10 -98q0 -84 51.5 -137.5t138.5 -53.5q68 0 128 28t101.5 70.5t74 97t50.5 101.5t27 90l111 526h192z
M1032 1204h-180l43 205h180zM694 1204h-180l43 205h180z" />
    <glyph glyph-name="yacute" unicode="&#xfd;" horiz-adv-x="1024" 
d="M-78 -440l33 159q31 -18 84 -18q86 1 150 59t126 183l-168 1101h201l121 -833h4l455 833h207l-713 -1241q-32 -56 -54 -89.5t-54 -69.5t-65 -55t-78.5 -31.5t-102.5 -12.5q-73 0 -146 15zM563 1190l193 295h229l-276 -295h-146z" />
    <glyph glyph-name="thorn" unicode="&#xfe;" horiz-adv-x="1251" 
d="M-33 -430l416 1966h192l-129 -604h5q49 66 135.5 101.5t195.5 35.5q173 0 273 -111.5t100 -285.5q0 -145 -34 -270.5t-98 -221t-165.5 -150.5t-228.5 -55q-265 0 -340 181h-4l-125 -586h-193zM342 406q0 -114 67.5 -194.5t192.5 -80.5q79 0 146 45t110.5 119.5t67.5 168
t24 191.5q0 127 -64 192.5t-169 65.5q-109 0 -196 -73.5t-133 -188.5t-46 -245z" />
    <glyph glyph-name="ydieresis" unicode="&#xff;" horiz-adv-x="1024" 
d="M-78 -440l33 159q31 -18 84 -18q86 1 150 59t126 183l-168 1101h201l121 -833h4l455 833h207l-713 -1241q-32 -56 -54 -89.5t-54 -69.5t-65 -55t-78.5 -31.5t-102.5 -12.5q-73 0 -146 15zM918 1204h-181l43 205h181zM580 1204h-181l43 205h181z" />
    <glyph glyph-name="dotlessi" unicode="&#x131;" horiz-adv-x="569" 
d="M84 0l221 1044h193l-222 -1044h-192z" />
    <glyph glyph-name="Lslash" unicode="&#x141;" horiz-adv-x="1024" 
d="M78 0l104 483l-151 -80l30 154l154 82l172 791h207l-145 -670l440 231l-31 -153l-442 -232l-92 -426h594l-37 -180h-803z" />
    <glyph glyph-name="lslash" unicode="&#x142;" horiz-adv-x="569" 
d="M84 0l139 653l-137 -104l35 168l139 104l154 715h192l-114 -541l139 105l-35 -168l-141 -107l-179 -825h-192z" />
    <glyph glyph-name="OE" unicode="&#x152;" horiz-adv-x="1933" 
d="M958 180l230 1069q-93 13 -170 13q-183 0 -331.5 -81t-233 -223.5t-84.5 -318.5q0 -137 50 -242t154.5 -167t251.5 -62q51 0 133 12zM1970 1430l-37 -181h-542l-91 -418h510l-32 -180h-516l-103 -471h576l-33 -180h-516q-108 0 -207 -6q-23 -1 -62 -2.5t-71 -2.5t-60 -1
q-142 0 -262 48.5t-201 131.5t-126 194.5t-45 237.5q0 165 47.5 304.5t130.5 237.5t195 166.5t240.5 101t268.5 32.5q115 0 232 -6q26 -1 73.5 -2.5t86 -2.5t71.5 -1h473z" />
    <glyph glyph-name="oe" unicode="&#x153;" horiz-adv-x="1933" 
d="M84 440q0 176 68 317t205 226.5t323 85.5q40 0 78 -4.5t85 -19.5t85 -38.5t72 -65.5t51 -97q35 76 100 128t141.5 74.5t163.5 22.5q188 0 290.5 -106t102.5 -293q0 -81 -18 -191h-719q-6 -27 -6 -76q1 -85 47 -148t118.5 -93.5t160.5 -30.5q130 0 274 62l-27 -173
q-48 -18 -121 -31.5t-133 -13.5q-73 0 -133.5 10.5t-120.5 35.5t-109 73.5t-83 118.5q-70 -118 -188.5 -178t-231.5 -60q-221 0 -348 119t-127 346zM557 131q105 0 194 71t138 181.5t49 228.5q0 125 -71 213t-195 88q-74 0 -138 -30t-108 -79t-75.5 -112.5t-46.5 -131.5
t-15 -134q0 -131 68.5 -213t199.5 -82zM1116 623h535q6 47 6 79q0 95 -57.5 153t-163.5 58q-114 0 -201 -84t-119 -206z" />
    <glyph glyph-name="Scaron" unicode="&#x160;" horiz-adv-x="1024" 
d="M1040 1386l-57 -182q-116 70 -260 70q-54 0 -101.5 -11.5t-90 -36t-67 -69.5t-24.5 -106q0 -48 27 -89.5t70 -73t95 -62.5t104 -67.5t95 -79.5t70 -106t27 -139q0 -84 -29.5 -163t-87.5 -146.5t-155.5 -108.5t-221.5 -41q-114 0 -205.5 21t-193.5 61l65 189
q64 -40 145.5 -65t155.5 -25q78 0 139.5 22.5t97.5 60t54.5 81.5t18.5 90q0 59 -27 105.5t-70 79t-95 62.5t-104 64.5t-95 76t-70 105t-27 144.5q0 94 40.5 172.5t107.5 129t151 78t174 27.5q179 0 344 -68zM1028 1870l-272 -295h-176l-154 295h152l104 -201l178 201h168z
" />
    <glyph glyph-name="scaron" unicode="&#x161;" horiz-adv-x="796" 
d="M797 1012l-58 -152q-104 53 -209 53q-35 0 -66.5 -5.5t-61.5 -18.5t-48 -39.5t-18 -63.5q0 -36 19.5 -67t51 -55t69.5 -48.5t76 -53t69.5 -62t51 -83t19.5 -108.5q0 -72 -25.5 -131t-66 -96t-94 -62t-105.5 -35t-104 -10q-78 0 -138.5 8t-87 16t-79.5 26l37 165
q145 -59 239 -59q89 0 154 40t65 122q0 41 -26.5 78t-66 64t-85.5 60.5t-85.5 67t-66 85.5t-26.5 114q0 64 24.5 116.5t64 87t92 58.5t105.5 34.5t107 10.5q133 0 273 -57zM915 1485l-272 -295h-176l-154 295h152l104 -201l179 201h167z" />
    <glyph glyph-name="Ydieresis" unicode="&#x178;" horiz-adv-x="1366" 
d="M477 0l123 598l-383 832h225l285 -648l563 648h260l-749 -832l-123 -598h-201zM1161 1534h-180l43 205h180zM823 1534h-180l43 205h180z" />
    <glyph glyph-name="Zcaron" unicode="&#x17d;" 
d="M-27 0l33 180l942 1069h-702l37 181h952l-33 -183l-942 -1067h739l-34 -180h-992zM1085 1870l-272 -295h-176l-154 295h152l104 -201l179 201h167z" />
    <glyph glyph-name="zcaron" unicode="&#x17e;" horiz-adv-x="1024" 
d="M-12 0l32 168l744 721h-580l31 155h827l-38 -167l-750 -721h618l-34 -156h-850zM1028 1485l-272 -295h-176l-154 295h152l104 -201l178 201h168z" />
    <glyph glyph-name="florin" unicode="&#x192;" 
d="M281 705l24 143h230l28 129q40 183 78 267q95 209 283 210q107 0 186 -31l-41 -182q-56 45 -121 45q-22 0 -41 -5.5t-33.5 -18t-25.5 -23.5t-20.5 -33t-15 -34.5t-12.5 -39t-9 -35.5t-7 -36l-45 -213h238l-25 -143h-237l-135 -713q-16 -83 -29.5 -138t-35 -110t-48 -88.5
t-65 -60.5t-90 -38.5t-119.5 -11.5q-94 0 -160 31l33 178q61 -41 127 -41q76 0 103 35t50 146l164 811h-229z" />
    <glyph glyph-name="circumflex" unicode="&#x2c6;" horiz-adv-x="569" 
d="M119 1190l272 295h176l154 -295h-152l-104 201l-178 -201h-168z" />
    <glyph glyph-name="caron" unicode="&#x2c7;" horiz-adv-x="569" 
d="M801 1485l-273 -295h-176l-153 295h151l105 -201l178 201h168z" />
    <glyph glyph-name="uni02C9" unicode="&#x2c9;" horiz-adv-x="569" 
d="M166 1260l24 118h551l-22 -118h-553z" />
    <glyph glyph-name="breve" unicode="&#x2d8;" horiz-adv-x="569" 
d="M168 1479h94q0 -81 50.5 -120.5t140.5 -39.5q187 0 235 160h94q-23 -134 -112 -206.5t-228 -72.5q-135 0 -208 72t-66 207z" />
    <glyph glyph-name="dotaccent" unicode="&#x2d9;" horiz-adv-x="569" 
d="M522 1204h-180l43 205h180z" />
    <glyph glyph-name="ring" unicode="&#x2da;" horiz-adv-x="569" 
d="M659 1362q0 -87 -60 -148t-146 -61t-145.5 61t-59.5 148q0 88 59.5 148.5t145.5 60.5t146 -60.5t60 -148.5zM578 1362q0 51 -37.5 89t-87.5 38t-86.5 -37t-36.5 -90q0 -52 36.5 -89.5t86.5 -37.5q49 0 87 38.5t38 88.5z" />
    <glyph glyph-name="ogonek" unicode="&#x2db;" horiz-adv-x="569" 
d="M270 0h88q-124 -86 -175.5 -145.5t-51.5 -116.5q0 -41 20.5 -63.5t57.5 -22.5q27 0 65 21t58 48l43 -34q-66 -68 -120 -92.5t-132 -24.5q-148 0 -148 113q0 173 295 317z" />
    <glyph glyph-name="tilde" unicode="&#x2dc;" horiz-adv-x="569" 
d="M199 1200h-95q4 30 11 58t22 60.5t35 56t52.5 39.5t72.5 16q55 0 164.5 -48t150.5 -47q42 -3 66 25.5t29 69.5h94q-4 -30 -11 -58t-22 -60.5t-35 -56t-52.5 -39.5t-72.5 -16q-55 0 -164.5 47.5t-150.5 46.5q-42 3 -65.5 -25t-28.5 -69z" />
    <glyph glyph-name="hungarumlaut" unicode="&#x2dd;" horiz-adv-x="569" 
d="M166 1190l192 295h230l-277 -295h-145zM506 1190l192 295h230l-277 -295h-145z" />
    <glyph glyph-name="uni03A9" unicode="&#x3a9;" horiz-adv-x="1466" 
d="M315 150l2 6q-95 104 -137.5 262t-1.5 354q41 192 154 346.5t272 242t334 87.5q110 0 199.5 -36.5t146.5 -100t92.5 -148.5t38.5 -181.5t-16 -199.5q-43 -200 -156.5 -364t-249.5 -262l-2 -6h301l-30 -150h-506l24 111q141 80 259 244t167 393q14 80 16 157.5t-19.5 148
t-58 124t-99 85t-142.5 31.5q-191 0 -343 -158.5t-204 -396.5q-45 -214 4.5 -384t153.5 -244l-22 -111h-504l30 150h297z" />
    <glyph glyph-name="uni03BC" unicode="&#x3bc;" horiz-adv-x="1251" 
d="M1217 1044l-183 -884q-24 -128 -28 -160h-181l33 166h-4q-52 -83 -141 -137t-215 -54q-84 -3 -136 8.5t-92 39.5l-92 -453h-192l303 1474h192l-129 -624q-10 -58 -10 -98q0 -84 51.5 -137.5t138.5 -53.5q68 0 128 28t101.5 70.5t74 97t50.5 101.5t27 90l111 526h193z" />
    <glyph glyph-name="pi" unicode="&#x3c0;" horiz-adv-x="1183" 
d="M1217 907h-160l-129 -606q-39 -183 -35 -301h-176q-23 61 26 289l131 618h-346q-56 -214 -156.5 -491.5t-181.5 -415.5h-178q89 164 188 434.5t146 472.5q-144 0 -225 -24l2 121q96 59 317 59h826z" />
    <glyph glyph-name="uni2010" unicode="&#x2010;" horiz-adv-x="681" 
d="M72 473l32 156h539l-31 -156h-540z" />
    <glyph glyph-name="endash" unicode="&#x2013;" horiz-adv-x="1024" 
d="M-2 479l31 144h1024l-31 -144h-1024z" />
    <glyph glyph-name="emdash" unicode="&#x2014;" horiz-adv-x="2048" 
d="M-2 479l31 144h2048l-31 -144h-2048z" />
    <glyph glyph-name="quoteleft" unicode="&#x2018;" horiz-adv-x="569" 
d="M664 1430l-236 -502h-244l283 502h197z" />
    <glyph glyph-name="quoteright" unicode="&#x2019;" horiz-adv-x="569" 
d="M184 928l236 502h244l-283 -502h-197z" />
    <glyph glyph-name="quotesinglbase" unicode="&#x201a;" horiz-adv-x="569" 
d="M-115 -272l236 501h244l-283 -501h-197z" />
    <glyph glyph-name="quotedblleft" unicode="&#x201c;" 
d="M1149 1430l-236 -502h-243l282 502h197zM748 1430l-236 -502h-244l283 502h197z" />
    <glyph glyph-name="quotedblright" unicode="&#x201d;" 
d="M268 928l236 502h244l-283 -502h-197zM670 928l235 502h244l-283 -502h-196z" />
    <glyph glyph-name="quotedblbase" unicode="&#x201e;" 
d="M10 -272l236 501h243l-282 -501h-197zM412 -272l235 501h244l-283 -501h-196z" />
    <glyph glyph-name="dagger" unicode="&#x2020;" 
d="M602 1071l78 359h180l-78 -359h357l-31 -143h-356l-199 -928h-180l198 928h-356l31 143h356z" />
    <glyph glyph-name="daggerdbl" unicode="&#x2021;" 
d="M608 1098l72 332h180l-72 -332h357l-31 -144h-356l-103 -479h355l-31 -143h-354l-72 -332h-180l71 332h-356l31 143h356l103 479h-355l31 144h354z" />
    <glyph glyph-name="bullet" unicode="&#x2022;" horiz-adv-x="1024" 
d="M197 715q0 148 104 252t252 104t253 -104t105 -252t-105 -253.5t-253 -105.5q-147 0 -251.5 105.5t-104.5 253.5z" />
    <glyph glyph-name="ellipsis" unicode="&#x2026;" horiz-adv-x="2048" 
d="M145 0l48 229h229l-47 -229h-230zM827 0l47 229h230l-47 -229h-230zM1509 0l47 229h230l-47 -229h-230z" />
    <glyph glyph-name="perthousand" unicode="&#x2030;" horiz-adv-x="2048" 
d="M1550 236q0 -65 25.5 -97.5t85.5 -32.5q43 0 75.5 28.5t49 73t24 87.5t7.5 82q0 135 -109 135q-46 0 -79.5 -28.5t-49 -74t-22.5 -88t-7 -85.5zM1382 240q0 72 20.5 140.5t60.5 128.5t109.5 97t158.5 37q126 0 190 -69.5t64 -204.5q0 -109 -37 -196.5t-115.5 -142.5
t-187.5 -55q-121 0 -192 73.5t-71 191.5zM692 240q0 109 39 199t120 147t189 57q129 0 191.5 -71.5t62.5 -202.5q0 -108 -36.5 -195.5t-115.5 -143t-188 -55.5q-119 0 -190.5 73t-71.5 192zM860 236q0 -65 25.5 -97.5t85.5 -32.5q43 0 75.5 28.5t48.5 73t23.5 87.5t7.5 82
q0 135 -108 135q-46 0 -79.5 -28.5t-49 -74t-22.5 -88t-7 -85.5zM141 1051q0 56 12 111.5t39.5 108.5t66.5 93.5t98.5 65t131.5 24.5q126 0 190 -69.5t64 -204.5q0 -109 -37 -196.5t-115.5 -142.5t-187.5 -55q-121 0 -191.5 73.5t-70.5 191.5zM309 1047q0 -65 25 -97t86 -32
q43 0 75.5 28.5t48.5 73t23.5 87t7.5 81.5q0 135 -108 135q-46 0 -79.5 -28.5t-49 -74t-22.5 -88t-7 -85.5zM127 -45l1044 1520h144l-1045 -1520h-143z" />
    <glyph glyph-name="guilsinglleft" unicode="&#x2039;" horiz-adv-x="681" 
d="M367 137l-304 414l375 414h213l-385 -414l299 -414h-198z" />
    <glyph glyph-name="guilsinglright" unicode="&#x203a;" horiz-adv-x="681" 
d="M348 965l303 -414l-375 -414h-213l386 414l-299 414h198z" />
    <glyph glyph-name="fraction" unicode="&#x2044;" horiz-adv-x="342" 
d="M-346 -45l891 1520h143l-891 -1520h-143z" />
    <glyph glyph-name="Euro" unicode="&#x20ac;" 
d="M1366 1401l-76 -170q-44 26 -114 40.5t-129 14.5q-178 0 -319.5 -103t-223.5 -272h651l-49 -110h-649q-28 -86 -37 -172h612l-47 -111h-563q9 -172 109.5 -271.5t271.5 -99.5q147 0 266 52l-25 -179q-123 -45 -294 -45q-258 0 -407 143t-148 400h-195l49 111h154
q12 87 37 172h-181l50 110h170q105 243 316 393t470 150q176 0 301 -53z" />
    <glyph glyph-name="afii61289" unicode="&#x2113;" horiz-adv-x="1007" 
d="M842 326l67 -76q-197 -266 -450 -266q-69 0 -122 19.5t-84.5 53.5t-50 80t-19.5 100t7 113q0 5 5 25q-24 -17 -73.5 -51t-60.5 -41l-30 102q144 101 194 141l115 545q29 134 77.5 234t108 156t122 83t128.5 27q86 0 137.5 -46.5t61 -122t-7.5 -171.5q-39 -181 -185 -361
t-389 -376l-16 -74q-29 -144 15.5 -216.5t135.5 -72.5q85 0 168 57.5t146 137.5zM518 1081l-88 -413q364 327 414 563q45 205 -94 205q-64 0 -128.5 -85t-103.5 -270z" />
    <glyph glyph-name="trademark" unicode="&#x2122;" horiz-adv-x="2027" 
d="M862 1430v-144h-262v-708h-156v708h-262v144h680zM1063 578v852h242l223 -576l219 576h242v-852h-156v651h-4l-240 -651h-127l-239 651h-4v-651h-156z" />
    <glyph glyph-name="Omega" unicode="&#x2126;" horiz-adv-x="1466" 
d="M315 150l2 6q-95 104 -137.5 262t-1.5 354q41 192 154 346.5t272 242t334 87.5q110 0 199.5 -36.5t146.5 -100t92.5 -148.5t38.5 -181.5t-16 -199.5q-43 -200 -156.5 -364t-249.5 -262l-2 -6h301l-30 -150h-506l24 111q141 80 259 244t167 393q14 80 16 157.5t-19.5 148
t-58 124t-99 85t-142.5 31.5q-191 0 -343 -158.5t-204 -396.5q-45 -214 4.5 -384t153.5 -244l-22 -111h-504l30 150h297z" />
    <glyph glyph-name="estimated" unicode="&#x212e;" horiz-adv-x="1982" 
d="M1913 694h-1329q-13 0 -13 -8v-403q0 -22 19 -45q100 -103 230 -161.5t274 -58.5q154 0 291 65.5t237 178.5h119q-112 -132 -283 -208.5t-366 -76.5q-167 0 -319 58.5t-262.5 157t-175.5 235.5t-65 287t65 287t175.5 236t262.5 157.5t319 58.5q168 0 320 -58.5
t261.5 -157.5t174.5 -236t65 -287v-21zM1612 748v403q0 28 -21 49q-100 98 -227.5 153.5t-269.5 55.5t-272 -58t-230 -159q-21 -21 -21 -49v-395q0 -5 4.5 -10t8.5 -5h1020q8 0 8 15z" />
    <glyph glyph-name="partialdiff" unicode="&#x2202;" horiz-adv-x="1132" 
d="M389 1352l-31 135q176 115 375 115q105 0 188.5 -47.5t139.5 -144t67.5 -241.5t-28.5 -340q-53 -245 -154.5 -434t-249.5 -300t-321 -111q-79 0 -140.5 27.5t-97 74t-57 108t-20 129t13.5 136.5q33 156 120 277.5t199.5 184t229.5 62.5q64 0 118 -20.5t87.5 -52t53 -60
t27.5 -53.5h2q15 51 21 84q32 168 12 294.5t-90 200.5t-174 74q-147 0 -291 -98zM424 135h2q87 0 174 72.5t151.5 182t104.5 237.5q-4 33 -20 67.5t-43.5 67t-72 53.5t-97.5 21q-119 0 -227 -111.5t-142 -267.5q-30 -139 16.5 -230.5t153.5 -91.5z" />
    <glyph glyph-name="uni2206" unicode="&#x2206;" horiz-adv-x="1329" 
d="M-45 0l25 117l784 1343h215l207 -1339l-27 -121h-1204zM172 150h823l-121 729q-5 47 -26.5 186.5t-24.5 189.5h-6q-19 -42 -93.5 -170t-98.5 -174z" />
    <glyph glyph-name="product" unicode="&#x220f;" horiz-adv-x="1636" 
d="M1583 1260h-219v-1457h-180v1457h-539v-1457h-178v1457h-219v163h1335v-163z" />
    <glyph glyph-name="summation" unicode="&#x2211;" horiz-adv-x="1325" 
d="M1284 -197h-1042v119l534 690l-512 684v127h987v-155h-737v-6l469 -621l-510 -659v-7h811v-172z" />
    <glyph glyph-name="minus" unicode="&#x2212;" horiz-adv-x="1228" 
d="M127 428v180h1036v-180h-1036z" />
    <glyph glyph-name="uni2215" unicode="&#x2215;" horiz-adv-x="342" 
d="M-346 -45l891 1520h143l-891 -1520h-143z" />
    <glyph glyph-name="uni2219" unicode="&#x2219;" horiz-adv-x="569" 
d="M197 621q0 51 34.5 85.5t85.5 34.5t86 -34.5t35 -85.5t-35 -86t-86 -35t-85.5 35t-34.5 86z" />
    <glyph glyph-name="radical" unicode="&#x221a;" horiz-adv-x="1378" 
d="M1386 1698l-454 -1997h-156l-319 932l-154 -60l-33 109l297 117l248 -729q6 -26 19.5 -80t17.5 -76h2q3 21 14 77.5t15 80.5l372 1626h131z" />
    <glyph glyph-name="infinity" unicode="&#x221e;" horiz-adv-x="1671" 
d="M1571 592v-2q0 -148 -94.5 -240t-221.5 -92q-94 0 -179 56t-193 184q-38 -45 -66.5 -74.5t-68 -64t-75 -54.5t-81.5 -33.5t-94 -13.5q-127 0 -218.5 93.5t-91.5 230.5q0 144 93 236.5t233 92.5q106 0 194 -62t181 -175q92 102 132 137q118 101 247 100q134 0 218.5 -88.5
t84.5 -230.5zM514 367h2q20 0 40 3.5t40.5 13.5t35.5 17t36.5 25t32.5 26.5t33 31.5t29 30t30.5 33.5t27.5 30.5q-86 108 -128 147q-91 82 -191 82q-91 0 -145 -65.5t-54 -161.5q0 -89 59.5 -151t151.5 -62zM1257 807h-4q-38 0 -74.5 -14t-72.5 -43.5t-58 -50.5t-58 -61.5
l-44 -49.5q108 -124 173.5 -172.5t142.5 -48.5q89 0 142.5 66t53.5 149q0 102 -56.5 163.5t-144.5 61.5z" />
    <glyph glyph-name="integral" unicode="&#x222b;" horiz-adv-x="950" 
d="M915 1720l-24 -127q-38 21 -76 21q-64 0 -102 -49q-66 -79 -66 -359q0 -160 14.5 -500t14.5 -513q0 -272 -84 -410q-34 -59 -93 -89t-126 -30q-83 0 -142 35l29 131q56 -25 92 -25q58 0 94 45q66 86 66 343q0 175 -14.5 521t-14.5 509q0 171 26 273.5t87 166.5
q78 84 205 84q62 0 114 -27z" />
    <glyph glyph-name="approxequal" unicode="&#x2248;" horiz-adv-x="1224" 
d="M1063 891l72 -64q-105 -198 -269 -198q-56 0 -103.5 19t-131.5 67q-57 34 -99 50.5t-90 16.5q-44 0 -82.5 -23t-61.5 -50.5t-54 -75.5l-74 61q47 91 122.5 145t164.5 54q23 0 47.5 -4.5t41.5 -9.5t40 -16t34 -17t33.5 -19t28.5 -16q9 -5 39 -22t40 -21.5t32 -13.5
t39.5 -12t37.5 -3q60 0 103.5 37t89.5 115zM1063 532l72 -61q-106 -199 -269 -199q-56 0 -103.5 19t-131.5 67q-41 24 -63 36t-57 23t-67 11q-34 0 -63.5 -12t-54.5 -37t-41.5 -46.5t-40.5 -58.5l-74 64q47 91 122.5 145t164.5 54q35 0 72.5 -10t54 -17t57.5 -30l41 -23
q12 -7 37.5 -21.5t38.5 -21t33.5 -15.5t40 -12.5t40.5 -3.5q58 0 101.5 36.5t89.5 112.5z" />
    <glyph glyph-name="notequal" unicode="&#x2260;" horiz-adv-x="1263" 
d="M940 1034l-88 -196h309v-113h-354l-133 -293h487v-113h-532l-109 -239l-90 41l92 198h-299v113h344l131 293h-475v113h520l107 235z" />
    <glyph glyph-name="lessequal" unicode="&#x2264;" horiz-adv-x="1296" 
d="M1190 197l-922 458v121l922 459v-133l-803 -381v-4l803 -385v-135zM1196 0h-938v117h938v-117z" />
    <glyph glyph-name="greaterequal" unicode="&#x2265;" horiz-adv-x="1296" 
d="M270 1235l922 -459v-121l-920 -458v135l801 383v4l-803 383v133zM1194 0h-934v117h934v-117z" />
    <glyph glyph-name="lozenge" unicode="&#x25ca;" horiz-adv-x="1378" 
d="M1272 711l-410 -805h-147l-404 805l410 809h147zM1108 707l-277 548q-27 67 -36 111h-7q-21 -70 -38 -111l-277 -540l279 -553q27 -70 36 -109h7q19 69 36 107z" />
    <glyph glyph-name="fi" unicode="&#xfb01;" horiz-adv-x="1366" 
d="M877 0l221 1044h192l-221 -1044h-192zM1403 1495l-45 -217h-217l45 217h217zM180 0l193 889h-250l29 155h254l24 103q10 44 19.5 78.5t27.5 79.5t38.5 78.5t52.5 68.5t70.5 57.5t91.5 37t116 14.5q67 0 147 -23l-39 -154q-14 7 -45 14t-47 7q-49 0 -87.5 -16t-63 -40
t-43 -62t-28 -70t-19.5 -76l-21 -97h277l-31 -155h-281l-192 -889h-193z" />
    <glyph glyph-name="fl" unicode="&#xfb02;" horiz-adv-x="1366" 
d="M180 0l193 889h-250l29 155h254l24 103q10 44 19.5 78.5t27.5 79.5t38.5 78.5t52.5 68.5t70.5 57.5t91.5 37t116 14.5q67 0 147 -23l-39 -154q-14 7 -45 14t-47 7q-49 0 -87.5 -16t-63 -40t-43 -62t-28 -70t-19.5 -76l-21 -97h277l-31 -155h-281l-192 -889h-193zM881 0
l325 1536h193l-326 -1536h-192z" />
    <glyph glyph-name="a.superior" horiz-adv-x="739" 
d="M279 1272l22 151q167 31 262 31q51 0 98 -10t89.5 -31.5t68 -62t25.5 -95.5q0 -41 -15 -122q-6 -31 -21 -96t-26.5 -121.5t-19.5 -104.5h-164l23 102h-5q-31 -58 -91 -88t-130 -30q-47 0 -90.5 8.5t-84 27.5t-65 55.5t-24.5 86.5t19 90t52.5 65.5t73 43t88.5 26.5
t90.5 12.5t86.5 3.5h116q1 4 3 11.5t3 15t1 14.5q0 36 -41 52t-101 16q-44 0 -114.5 -14.5t-128.5 -36.5zM645 1096h-96q-36 0 -71.5 -4t-76 -14.5t-65.5 -33.5t-25 -55q0 -25 22 -40.5t44.5 -19t46.5 -3.5q83 0 146 47.5t75 122.5z" />
    <glyph glyph-name="o.superior" horiz-adv-x="813" 
d="M496 795q-152 0 -236 71.5t-84 208.5q0 165 104.5 272t294.5 107q147 0 230.5 -73t83.5 -203q0 -108 -44 -193.5t-134.5 -137.5t-214.5 -52zM709 1151q0 76 -37 124t-109 48q-97 0 -151 -67t-56 -177q0 -60 41 -106.5t107 -46.5q87 0 146 62t59 163z" />
    <glyph glyph-name="one.superior" horiz-adv-x="739" 
d="M297 578l158 708l-152 -92l-72 92l275 156h166l-201 -864h-174z" />
    <glyph glyph-name="two.superior" horiz-adv-x="739" 
d="M59 578l29 127q17 14 91.5 70.5t139 109t136.5 117t114.5 122.5t42.5 97q0 90 -129 90q-82 0 -217 -41l13 141q122 43 237 43q74 0 134 -19.5t101.5 -68.5t41.5 -121q0 -51 -26.5 -106t-64.5 -100t-93 -95t-100 -84.5t-98 -74t-75 -58.5v-6h346l-29 -143h-594z" />
    <glyph glyph-name="three.superior" horiz-adv-x="739" 
d="M301 954l18 144h38.5t45 1.5t52.5 5t49.5 9t48.5 15.5t37.5 23.5t27.5 33t9 43.5q0 42 -41 62t-88 20q-111 0 -222 -43l13 155q8 2 39 8.5t44 9t37.5 6.5t44.5 5.5t40 1.5q57 0 107 -8.5t99 -29t78 -63.5t29 -104t-41.5 -111t-98 -77.5t-116.5 -34.5v-4q72 -16 123 -63
t51 -113q0 -67 -36 -122.5t-93 -89t-122 -51.5t-128 -18q-148 0 -264 39l33 154q75 -49 211 -49q39 0 74 6t69.5 20.5t55 43.5t20.5 71q0 30 -19.5 51t-44 31t-64.5 15.5t-61.5 6t-54.5 0.5z" />
    </font>
</defs>
</svg>
